<?xml version="1.0" encoding="utf-8"?>
<!-- Generator: Adobe Illustrator 16.0.0, SVG Export Plug-In . SVG Version: 6.00 Build 0)  -->
<!DOCTYPE svg PUBLIC "-//W3C//DTD SVG 1.1//EN" "http://www.w3.org/Graphics/SVG/1.1/DTD/svg11.dtd">
<svg version="1.1" id="Layer_1" xmlns="http://www.w3.org/2000/svg" xmlns:xlink="http://www.w3.org/1999/xlink" x="0px" y="0px"
	 width="188px" height="30px" viewBox="0 0 188 30" enable-background="new 0 0 188 30" xml:space="preserve">
<g>
	<g>
		<path fill="#332D2D" d="M7.054,23.796c-0.968,0-1.864-0.176-2.693-0.529c-0.829-0.35-1.546-0.83-2.146-1.439
			c-0.605-0.609-1.076-1.33-1.412-2.154c-0.341-0.83-0.511-1.717-0.511-2.658v-0.037c0-0.939,0.17-1.823,0.511-2.648
			c0.336-0.82,0.807-1.542,1.412-2.165c0.601-0.623,1.321-1.112,2.164-1.47s1.771-0.533,2.788-0.533
			c0.614,0,1.179,0.049,1.686,0.148c0.511,0.103,0.968,0.237,1.385,0.417c0.412,0.175,0.798,0.39,1.147,0.641
			c0.354,0.251,0.681,0.524,0.981,0.825l-1.847,2.129c-0.516-0.462-1.04-0.829-1.573-1.094c-0.533-0.26-1.134-0.394-1.797-0.394
			c-0.557,0-1.067,0.107-1.538,0.322c-0.47,0.211-0.874,0.507-1.214,0.883c-0.337,0.376-0.601,0.815-0.789,1.309
			c-0.188,0.498-0.282,1.027-0.282,1.591v0.039c0,0.566,0.094,1.1,0.282,1.602s0.448,0.941,0.779,1.316
			c0.332,0.377,0.735,0.678,1.206,0.896c0.471,0.221,0.99,0.328,1.556,0.328c0.753,0,1.389-0.139,1.909-0.412
			c0.524-0.279,1.039-0.654,1.555-1.131l1.847,1.865c-0.341,0.363-0.69,0.689-1.058,0.977c-0.363,0.291-0.762,0.539-1.192,0.744
			C9.774,23.37,9.3,23.526,8.784,23.634C8.273,23.741,7.694,23.796,7.054,23.796z"/>
		<path fill="#332D2D" d="M15.905,10.386h6.028c1.667,0,2.949,0.444,3.841,1.335c0.753,0.753,1.13,1.761,1.13,3.017v0.036
			c0,1.067-0.26,1.937-0.78,2.608c-0.524,0.672-1.201,1.166-2.044,1.479l3.219,4.707H23.91l-2.823-4.219h-2.281v4.219h-2.9V10.386z
			 M21.745,16.79c0.713,0,1.265-0.17,1.649-0.506c0.381-0.336,0.574-0.789,0.574-1.35v-0.04c0-0.623-0.202-1.094-0.605-1.403
			c-0.403-0.314-0.959-0.471-1.676-0.471h-2.882v3.769H21.745z"/>
		<path fill="#332D2D" d="M30.565,10.386h9.928v2.582H33.43v2.67h6.217v2.582H33.43v2.77h7.157v2.578H30.565V10.386z"/>
		<path fill="#332D2D" d="M44.518,10.386h5.388c0.789,0,1.497,0.112,2.12,0.327c0.618,0.224,1.147,0.533,1.582,0.937
			c0.43,0.399,0.762,0.878,0.995,1.439c0.232,0.56,0.35,1.179,0.35,1.855v0.036c0,0.767-0.14,1.439-0.413,2.018
			c-0.277,0.578-0.658,1.063-1.143,1.447c-0.479,0.391-1.049,0.682-1.694,0.879c-0.646,0.191-1.34,0.291-2.079,0.291h-2.205v3.953
			h-2.9V10.386z M49.717,17.032c0.727,0,1.291-0.188,1.694-0.568s0.604-0.857,0.604-1.417v-0.036c0-0.65-0.21-1.143-0.632-1.483
			c-0.421-0.336-0.995-0.506-1.726-0.506h-2.24v4.011H49.717z"/>
		<path fill="#332D2D" d="M58.196,10.386h9.928v2.582h-7.063v2.67h6.216v2.582h-6.216v2.77h7.157v2.578H58.196V10.386z"/>
		<path fill="#332D2D" d="M76.787,23.755c-1.004,0-1.989-0.17-2.958-0.516c-0.968-0.344-1.847-0.879-2.635-1.59l1.712-2.053
			c0.604,0.488,1.224,0.877,1.855,1.164c0.637,0.291,1.331,0.436,2.084,0.436c0.601,0,1.066-0.113,1.402-0.332
			c0.332-0.219,0.498-0.523,0.498-0.91v-0.039c0-0.189-0.036-0.355-0.104-0.498c-0.071-0.145-0.201-0.277-0.395-0.404
			c-0.197-0.125-0.466-0.256-0.811-0.375c-0.346-0.131-0.794-0.262-1.345-0.4c-0.668-0.16-1.273-0.344-1.811-0.547
			c-0.538-0.197-1-0.447-1.376-0.744c-0.377-0.291-0.668-0.658-0.874-1.098c-0.206-0.439-0.31-0.985-0.31-1.64v-0.036
			c0-0.605,0.112-1.147,0.336-1.631c0.225-0.484,0.538-0.901,0.946-1.25c0.403-0.354,0.887-0.623,1.452-0.811
			c0.56-0.188,1.183-0.283,1.859-0.283c0.969,0,1.855,0.144,2.667,0.435c0.807,0.287,1.551,0.704,2.228,1.241l-1.506,2.183
			c-0.587-0.399-1.165-0.717-1.73-0.95c-0.564-0.233-1.129-0.35-1.693-0.35c-0.569,0-0.991,0.112-1.273,0.332
			c-0.282,0.219-0.426,0.493-0.426,0.82v0.036c0,0.215,0.041,0.399,0.126,0.556c0.08,0.157,0.229,0.3,0.439,0.426
			c0.215,0.125,0.506,0.242,0.878,0.358c0.367,0.112,0.838,0.242,1.403,0.395c0.663,0.175,1.259,0.371,1.779,0.592
			c0.52,0.219,0.959,0.484,1.317,0.793c0.358,0.305,0.627,0.668,0.812,1.08c0.179,0.418,0.272,0.91,0.272,1.488v0.041
			c0,0.648-0.12,1.232-0.358,1.738c-0.237,0.512-0.564,0.938-0.99,1.281c-0.426,0.346-0.928,0.609-1.52,0.789
			C78.154,23.665,77.505,23.755,76.787,23.755z"/>
		<g>
			<g>
				<path fill="#FF5791" d="M104.248,14.276c0.107,0,0.098,0.018-0.027,0.063l-0.036,0.184c-0.161,0.144-0.385,0.368-0.677,0.677
					c0.063,0.063,0.095,0.134,0.095,0.215l-0.095-0.09c-0.058,0.081-0.08,0.152-0.058,0.215c-0.063-0.022-0.144-0.009-0.247,0.031
					c0,0.063,0.04,0.09,0.121,0.09c-0.103,0.147-0.166,0.277-0.184,0.402c0-0.063-0.022-0.111-0.063-0.152l-0.152,0.184
					c0,0.041,0.031,0.059,0.089,0.059c-0.08,0.086-0.398,0.412-0.954,0.99v0.064c-0.085,0.201-0.197,0.357-0.341,0.461
					c-0.018,0.018-0.018,0.063,0,0.121c0.206-0.121,0.301-0.184,0.278-0.184c0.022,0,0.031,0.008,0.031,0.031h0.063
					c-0.04,0,0.081-0.072,0.372-0.215l1.694-1.512c-0.35,0.369-0.883,0.902-1.604,1.602c0,0.021,0.022,0.053,0.063,0.094
					c-0.063,0.08-0.144,0.184-0.246,0.309c-0.022,0-0.063-0.031-0.126-0.094c-0.018,0.021-0.104,0.094-0.246,0.215
					c0,0.023,0.009,0.045,0.031,0.063c0.063-0.039,0.111-0.063,0.156-0.063c-0.107,0.143-0.784,0.918-2.039,2.316h-0.09
					c0,0.02-0.031,0.086-0.094,0.197c-0.063,0.117-0.094,0.193-0.094,0.234c0,0.08,0.085,0.205,0.246,0.367
					c0.166-0.08,0.26-0.297,0.278-0.646v0.4c0.063,0.045,0.156,0.053,0.277,0.031c0,0.063,0.027,0.143,0.076,0.246
					c0.054,0.104,0.081,0.18,0.081,0.215c0,0.291-0.157,0.426-0.467,0.404h0.188v0.215c-0.045,0-0.094-0.01-0.156-0.031
					c-0.059-0.018-0.104-0.031-0.121-0.031c-0.022,0.063-0.031,0.205-0.031,0.434c0,0.287,0.063,0.432,0.184,0.432
					c0.04,0,0.067-0.01,0.076-0.033c0.013-0.018,0.035-0.025,0.08-0.025c0.019,0,0.104,0.025,0.247,0.09
					c0.144,0.063,0.232,0.094,0.277,0.094l0.247-0.215c0.08,0,0.144,0.031,0.184,0.09c-0.022,0.084-0.031,0.195-0.031,0.34
					c0.04,0,0.08,0.031,0.121,0.094v0.246l-0.184,1.359c-0.431,0.672-0.812,1.012-1.139,1.012c-0.045,0-0.095-0.008-0.157-0.027
					c-0.059-0.025-0.112-0.035-0.152-0.035v-0.242c0.121-0.018,0.296-0.063,0.524-0.125c0.104-0.035,0.242-0.18,0.417-0.412
					c0.175-0.242,0.26-0.412,0.26-0.512c0-0.107-0.166-0.26-0.493-0.465c0.041-0.041,0.063,0.076,0.063,0.34
					c0,0.17-0.112,0.402-0.341,0.709c0-0.064-0.009-0.109-0.031-0.152c-0.041,0.043-0.059,0.07-0.059,0.088
					c-0.022-0.063-0.126-0.098-0.31-0.115c-0.125,0-0.188,0.152-0.188,0.457c-0.058,0-0.103-0.018-0.12-0.063
					c-0.086,0.107-0.197,0.143-0.341,0.125v-0.027c0.022,0.018,0.031,0,0.031-0.063c0-0.143-0.063-0.215-0.184-0.215
					c-0.041,0-0.063,0.008-0.063,0.027c0,0.018-0.021,0.035-0.063,0.035c-0.018,0-0.067-0.063-0.139-0.17
					c-0.071-0.117-0.116-0.17-0.139-0.17c-0.041,0-0.063,0.025-0.063,0.09c-0.058-0.02-0.099-0.027-0.12-0.027l0.12-0.127
					c0-0.018-0.018-0.053-0.058-0.088c-0.144-0.107-0.363-0.234-0.65-0.377h-0.556c-0.04,0-0.071,0.018-0.09,0.063
					c-0.022,0.045-0.054,0.063-0.094,0.063s-0.104-0.01-0.184-0.027h-0.188c-0.018-0.063-0.09-0.178-0.215-0.344v-0.184
					c-0.04-0.104-0.121-0.225-0.247-0.373c0.063-0.059,0.081-0.111,0.063-0.152l-2.837,1.914c0.04-0.045,0.058-0.072,0.058-0.09
					c-0.018-0.045-0.058-0.063-0.12-0.063c-0.126,0-0.256,0.045-0.399,0.152c0.144-0.162,0.358-0.332,0.646-0.494
					c0-0.018-0.009-0.043-0.031-0.063c-0.166,0.063-0.399,0.162-0.708,0.305c0.103-0.063,0.237-0.143,0.398-0.242
					c0.022-0.043,0.04-0.125,0.063-0.25c0.041-0.063,0.112-0.135,0.216-0.215c-0.041,0-0.112-0.027-0.216-0.09
					c-0.08,0.188-0.246,0.295-0.492,0.34c-0.041,0.037-0.072,0.107-0.095,0.215c-0.121,0.082-0.255,0.127-0.398,0.127
					c0,0.18-0.063,0.277-0.184,0.277c-0.045,0-0.076-0.018-0.095-0.035l-0.031-0.027c-0.04,0.08-0.103,0.215-0.184,0.395
					c0.018,0.027,0.081,0.035,0.184,0.035c0.372,0,0.587-0.08,0.65-0.25c-0.045,0.045-0.104,0.115-0.188,0.215
					c0.04,0.027,0.175,0.035,0.403,0.035c-0.063,0.063-0.166,0.145-0.31,0.242c-0.372,0.17-0.699,0.252-0.986,0.252
					c-0.143-0.082-0.847-0.414-2.097-0.986c-0.063-0.045-0.175-0.107-0.341-0.189c-0.453-0.223-0.69-0.357-0.708-0.402
					c-0.332-0.18-0.516-0.398-0.556-0.646c-0.022-0.039-0.054-0.08-0.095-0.121c-0.04,0.041-0.031,0.121,0.031,0.248
					c-0.04,0-0.099-0.02-0.17-0.045c-0.071-0.031-0.13-0.051-0.17-0.051l-0.063,0.064c0.126,0.102,0.175,0.205,0.157,0.309
					c0.103,0.063,0.224,0.17,0.372,0.34v0.152c0,0.045-0.031,0.063-0.095,0.063c-0.04,0-0.085-0.035-0.125-0.088l-0.121-0.1
					c-0.144,0-0.341-0.072-0.587-0.215c-0.166-0.162-0.35-0.771-0.556-1.82l-0.063-0.184c0-0.063,0.018-0.152,0.049-0.277
					s0.045-0.219,0.045-0.291c0-0.076,0.022-0.193,0.063-0.359h-0.031c-0.022,0-0.031-0.018-0.031-0.063
					c0.063-0.139,0.277-0.492,0.649-1.045c-0.022,0.104-0.031,0.248-0.031,0.432c0.019,0.018,0.05,0.063,0.09,0.121
					c0.022,0.146,0.014,0.309-0.031,0.492c0.045-0.121,0.197-0.447,0.466-0.986l0.462-0.922l-0.031-0.064
					c-0.063,0.064-0.095,0.104-0.095,0.127v-0.158c-0.058,0.041-0.13,0.135-0.215,0.279c0.166-0.287,0.287-0.525,0.372-0.709
					c0,0.104,0.009,0.166,0.031,0.184c0.225-0.246,0.35-0.492,0.367-0.738c-0.12,0.08-0.215,0.184-0.277,0.309
					c0.206-0.412,0.516-1.018,0.928-1.82c0.018-0.021,0.018-0.039,0-0.063l-0.278,0.184c0.019,0.023,0.041,0.031,0.063,0.031
					c0.04,0,0.071-0.008,0.089-0.031c-0.264,0.207-0.596,0.754-0.985,1.637c-0.121,0.287-0.391,0.676-0.803,1.174
					c0.166-0.475,0.587-1.35,1.264-2.621c0.104-0.189,0.278-0.525,0.524-1.023c0.086-0.16,0.341-0.551,0.771-1.169
					c0.331-0.475,0.497-0.731,0.497-0.771c0-0.103-0.085-0.229-0.251-0.372c-0.327-0.86-0.582-1.623-0.771-2.281
					c0.022-0.144,0.022-0.372,0-0.681c-0.04-0.144-0.09-0.336-0.152-0.583c-0.104-0.888-0.152-1.452-0.152-1.699
					c0-1.255,0.287-2.291,0.86-3.115c0.022,0,0.063,0.022,0.125,0.063C90.215,5.657,90.121,5.801,90,6.007l0.063,0.094
					c0.081-0.144,0.233-0.381,0.462-0.708h-0.157c0.045-0.148,0.144-0.323,0.31-0.529c0.682-0.43,1.111-0.645,1.295-0.645
					l0.095,0.094c0.04-0.044,0.111-0.094,0.215-0.157c0.246-0.04,0.618-0.112,1.111-0.215c0.265,0.103,0.574,0.295,0.924,0.587
					c0.331,0.121,0.564,0.184,0.712,0.184c0.041,0,0.104-0.013,0.184-0.044c0.081-0.032,0.144-0.049,0.184-0.049
					c0.104,0,0.261,0.103,0.462,0.309c0.31,0.103,0.744,0.269,1.3,0.493c0.099,0.044,0.161,0.107,0.184,0.202
					c0.019,0.094,0.04,0.148,0.063,0.17c-0.125-0.04-0.246-0.04-0.371,0c0.063,0.041,0.174,0.112,0.34,0.215
					c0.063,0,0.095-0.049,0.095-0.152c0.058,0.081,0.152,0.247,0.273,0.493l-0.273-0.032c-0.022,0.229,0.103,0.511,0.381,0.847
					c0.277,0.341,0.417,0.542,0.417,0.601c0,0.206-0.09,0.569-0.278,1.08c-0.018,0.188-0.081,0.435-0.184,0.744
					c-0.018,0.058,0,0.09,0.063,0.09c-0.063,0.085-0.125,0.215-0.184,0.403c-0.022,0.103-0.031,0.233-0.031,0.399
					c0.04-0.018,0.071-0.032,0.09-0.032l-0.121,0.157c0.063,0.103-0.175,0.542-0.708,1.327c-0.045,0-0.104,0.04-0.188,0.121
					c0,0.063-0.04,0.125-0.121,0.184l0.031,0.031c-0.045,0.125-0.104,0.166-0.188,0.125l-0.089,0.121
					c0,0.045,0.009,0.063,0.026,0.063c-0.081,0.063-0.161,0.135-0.246,0.215c-0.162,0.125-0.225,0.237-0.185,0.341
					c0.022-0.018,0.05-0.049,0.081-0.094c0.027-0.041,0.054-0.072,0.076-0.09c0,0.184-0.054,0.278-0.157,0.278
					c-0.04,0-0.049-0.022-0.031-0.063c0.022-0.022,0.022-0.031,0-0.031c-0.018,0.04-0.175,0.184-0.461,0.43
					c-0.019,0.022-0.019,0.063,0,0.125c0.04-0.022,0.094-0.063,0.152-0.125c-0.104,0.103-0.152,0.197-0.152,0.278
					c0,0.188,0.071,0.372,0.215,0.556l-0.063-0.031c-0.041,0.022-0.09,0.063-0.152,0.125c0.063,0.121,0.165,0.295,0.309,0.524
					c0.31,0.35,0.462,0.573,0.462,0.677c0,0.309,0.197,0.588,0.587,0.834c-0.04,0.084,0.121,0.381,0.493,0.896l0.126-0.096
					c-0.045,0.064-0.055,0.104-0.032,0.127l3.608-3.425c0,0.041,0.031,0.059,0.094,0.059c-0.045,0,0.104-0.175,0.431-0.524
					c0.063-0.041,0.144-0.081,0.246-0.121c0.022-0.063,0.05-0.135,0.095-0.215c0.246-0.229,0.788-0.641,1.631-1.237v0.22
					l-0.121,0.089c0-0.063-0.009-0.103-0.031-0.121c-0.699,0.493-1.47,1.233-2.313,2.219c-0.144,0.188-0.443,0.538-0.896,1.049
					c0.022,0.022,0.072,0,0.157-0.063c-0.188,0.229-0.35,0.382-0.493,0.466c0.081-0.063,0.17-0.174,0.277-0.34
					c0.019,0,0.01-0.018-0.031-0.063l-0.833,0.866l0.121,0.121l-0.278,0.277c0,0.021,0.014,0.045,0.031,0.063
					c0.516-0.512,1.192-1.139,2.035-1.882c0.435-0.368,1.38-1.08,2.837-2.129c-0.018,0.022-0.054,0.085-0.107,0.188
					c-0.05,0.103-0.095,0.175-0.135,0.215c-1.071,1.071-2.295,2.272-3.671,3.608c-0.022,0-0.022,0.021,0,0.063
					c0.041-0.021,0.278-0.184,0.709-0.492c-0.081,0.121-0.229,0.295-0.431,0.523c-0.022,0.08-0.022,0.121,0,0.121
					c-0.045,0-0.094,0.031-0.157,0.094c0.022,0.023,0.05,0.031,0.095,0.031c0.286-0.205,0.995-0.801,2.129-1.788
					c-0.126,0.184-0.27,0.358-0.436,0.524l-0.152,0.152l0.032,0.063c0.452-0.371,0.914-0.721,1.385-1.048l-0.399,0.399l0.152,0.031
					l0.031-0.121C103.428,14.953,103.84,14.603,104.248,14.276z M87.688,20.536l-0.126,0.217l-0.063-0.031l0.094-0.186H87.688z
					 M87.992,19.767c0.022,0.063-0.009,0.156-0.09,0.291c-0.085,0.135-0.125,0.225-0.125,0.264c0,0.063,0.022,0.113,0.063,0.152
					h-0.184C87.736,20.308,87.849,20.075,87.992,19.767z M87.965,23.159c-0.045-0.287-0.125-0.689-0.251-1.205
					c0,0.021-0.009,0.066-0.026,0.139c-0.022,0.076-0.031,0.129-0.031,0.17c0,0.125,0.058,0.277,0.184,0.467
					c-0.04,0-0.072-0.014-0.095-0.031h-0.089l0.246,0.492L87.965,23.159z M89.014,19.147c-0.125,0.229-0.435,0.793-0.928,1.699
					c-0.166,0.305-0.255,0.502-0.277,0.582v0.246C88.117,21.124,88.517,20.282,89.014,19.147z M87.965,23.437V23.28l-0.125,0.094
					C87.857,23.415,87.902,23.437,87.965,23.437z M90.184,18.192l-0.094-0.188c-0.184,0.291-0.493,0.744-0.924,1.357
					c-0.677,1.295-1.018,2.059-1.018,2.287c0,0.039,0.01,0.102,0.032,0.184c0.018,0.08,0.031,0.135,0.031,0.152
					c0.39-0.861,0.771-1.602,1.138-2.219v-0.125c-0.018-0.059,0.014-0.09,0.095-0.09v-0.063c-0.022-0.023-0.04-0.033-0.063-0.033
					c0.143-0.039,0.237-0.191,0.277-0.461v-0.063c0-0.063,0.045-0.131,0.139-0.201c0.095-0.072,0.148-0.127,0.171-0.17
					C90.049,18.376,90.121,18.255,90.184,18.192z M90.708,18.624c-0.063,0-0.09-0.031-0.09-0.096
					c-0.125,0.064-0.166,0.117-0.125,0.158c-0.126,0.143-0.462,0.645-1.018,1.51c0.081,0,0.112,0.023,0.09,0.063
					c-0.059,0.125-0.184,0.453-0.368,0.986c0.063-0.063,0.144-0.094,0.247-0.094c-0.287,0.291-0.444,0.467-0.462,0.523
					c0,0.127,0.04,0.238,0.121,0.342c0.144-0.287,0.341-0.699,0.587-1.232c0-0.127,0.135-0.432,0.399-0.924l0.031-0.156
					c0.125-0.121,0.188-0.238,0.188-0.342l-0.032-0.184C90.398,19.036,90.542,18.853,90.708,18.624z M89.659,18.282v-0.215
					c-0.103,0.104-0.152,0.207-0.152,0.309C89.565,18.313,89.619,18.282,89.659,18.282z M89.816,16.495v-0.152
					c-0.126,0.08-0.188,0.215-0.188,0.398C89.754,16.62,89.816,16.534,89.816,16.495z M90,17.485l-0.063-0.031l-0.095,0.215
					l0.063,0.031L90,17.485z M94.567,20.784c-0.601-0.906-1.009-1.582-1.237-2.035c-0.184-0.063-0.422,0.166-0.708,0.676
					c-0.063,0-0.144,0.02-0.247,0.045c-0.103,0.031-0.184,0.051-0.246,0.051c-0.04,0-0.063-0.01-0.063-0.031h-0.063
					c-0.018,0.039-0.071,0.102-0.152,0.184l-0.094-0.09c-0.556,0.637-0.945,1.367-1.17,2.188c-0.125,0.184-0.188,0.35-0.188,0.492
					c0,0.125,0.054,0.197,0.157,0.219l1.17-2.129c0.144-0.268,0.287-0.412,0.435-0.434c0.018-0.059,0.081-0.145,0.184-0.246
					c0.019,0.039,0.019,0.063,0,0.063c-0.063,0.08-0.184,0.287-0.372,0.617c0.041,0.041,0.063,0.072,0.063,0.09
					c-0.431,0.803-0.794,1.543-1.081,2.223c0.104,0.041,0.238,0.064,0.404,0.064c0.018,0,0.13-0.086,0.336-0.248
					c0.206-0.164,0.318-0.246,0.341-0.246h0.156c0,0.041-0.018,0.082-0.049,0.121c-0.031,0.041-0.045,0.072-0.045,0.094
					C92.51,22.159,93.33,21.608,94.567,20.784z M90.677,20.505l-0.059-0.031l-0.156,0.217l0.063,0.031L90.677,20.505z
					 M91.636,20.044l-0.125,0.031v-0.063l0.094-0.063L91.636,20.044z M93.33,4.402c-0.699,0.085-0.968,0.125-0.803,0.125
					c0.063,0,0.157,0.031,0.278,0.09c0-0.018,0.009-0.049,0.031-0.09c0.022,0.018,0.031,0.063,0.031,0.121h0.121
					C93.093,4.608,93.209,4.528,93.33,4.402z M92.931,24.759l-0.063-0.027l-0.094,0.09l0.031,0.063L92.931,24.759z M93.607,21.737
					c-0.103,0.064-0.224,0.135-0.367,0.217l0.059,0.125C93.339,21.999,93.442,21.886,93.607,21.737z M95.118,8.907
					c0-0.041-0.019-0.112-0.059-0.215c-0.044-0.103-0.063-0.175-0.063-0.215c-0.103,0-0.175-0.157-0.215-0.462
					c-0.085-0.125-0.197-0.22-0.341-0.278c0.04-0.045,0-0.103-0.125-0.188c-0.081,0.085-0.104,0.125-0.059,0.125
					c-0.022-0.022-0.085-0.032-0.188-0.032c-0.471,0-0.708,0.278-0.708,0.834c0,0.184,0.049,0.327,0.152,0.43
					c0.206-0.063,0.332-0.081,0.372-0.063c-0.104,0.022-0.246,0.063-0.431,0.125V9.31c0,0.103,0.067,0.332,0.197,0.69
					c0.135,0.363,0.233,0.583,0.296,0.664c0.247-0.287,0.587-0.749,1.018-1.385L95.118,8.907z M94.751,20.999l-0.157-0.152
					c-0.246,0.205-0.573,0.492-0.986,0.859c0.081-0.039,0.197-0.098,0.341-0.184c0.063,0.063,0.081,0.096,0.063,0.096
					C94.195,21.474,94.441,21.269,94.751,20.999z M94.038,24.083c-0.018,0.021-0.104,0.031-0.246,0.031
					c0,0.045-0.032,0.09-0.09,0.152c0.058,0,0.112,0.025,0.152,0.063C93.979,24.249,94.038,24.167,94.038,24.083z M94.164,10.542
					l-0.063-0.031l-0.063,0.125l0.063,0.027L94.164,10.542z M94.289,10.941c-0.147,0-0.197,0.014-0.157,0.031
					c-0.022,0.041-0.031,0.085-0.031,0.125C94.142,11.076,94.204,11.026,94.289,10.941z M94.656,10.417
					c0-0.081-0.022-0.121-0.063-0.121c-0.121,0.144-0.265,0.35-0.43,0.614C94.491,10.664,94.656,10.502,94.656,10.417z
					 M94.441,9.771l-0.125,0.121l-0.027-0.058l0.09-0.094L94.441,9.771z M94.473,10.91l-0.031-0.027l-0.152,0.152l0.027,0.031
					L94.473,10.91z M94.567,11.497c-0.063,0-0.148-0.009-0.251-0.031c0.085-0.121,0.125-0.265,0.125-0.43
					c-0.104,0.206-0.152,0.3-0.152,0.278c0,0.144,0.04,0.287,0.121,0.43C94.513,11.641,94.567,11.56,94.567,11.497z M96.323,10.789
					c-0.125,0.103-0.237,0.215-0.34,0.341c0,0.184-0.185,0.461-0.557,0.833c-0.12,0.161-0.309,0.39-0.555,0.677l0.063,0.215
					c0.022-0.04,0.063-0.081,0.125-0.121c0.019-0.022,0.05-0.022,0.09,0l-0.215,0.246l0.125,0.09
					c0.081-0.144,0.192-0.336,0.336-0.587c-0.184,0.044-0.264,0.063-0.246,0.063c0.269-0.327,0.627-0.78,1.08-1.358
					C96.252,11.089,96.283,10.955,96.323,10.789z M96.57,12.268l-0.063-0.031l-0.063,0.125l0.095,0.031L96.57,12.268z
					 M96.969,10.233c0-0.063-0.04-0.112-0.121-0.152c0,0.103-0.04,0.175-0.125,0.215c0,0.265-0.04,0.493-0.121,0.677
					C96.848,10.623,96.969,10.376,96.969,10.233z M97.713,8.015c-0.022,0-0.063,0.027-0.125,0.09l0.063,0.215
					C97.713,8.176,97.73,8.073,97.713,8.015z M98.358,25.073l-0.063,0.027l-0.462-0.557l0.063-0.063L98.358,25.073z M99.129,16.464
					l-0.031-0.064l-0.121,0.127l0.059,0.031L99.129,16.464z M99.313,25.655l-0.121,0.125c-0.086-0.107-0.144-0.26-0.188-0.465
					c0.063,0.045,0.135,0.107,0.22,0.188c-0.063-0.063-0.095-0.053-0.095,0.027C99.129,25.575,99.192,25.62,99.313,25.655z
					 M99.811,24.821v-0.277c-0.126-0.063-0.206-0.09-0.246-0.09c0,0.018-0.014,0.035-0.032,0.045
					c-0.022,0.01-0.031,0.035-0.031,0.08c0.041,0.037,0.104,0.152,0.184,0.342L99.811,24.821z M99.837,17.05l-0.058-0.063
					l-0.126,0.125l0.063,0.031L99.837,17.05z M99.869,25.136v-0.215h-0.059v0.215H99.869z M100.702,23.899
					c0.022-0.104,0.022-0.238,0-0.4c-0.04-0.021-0.152-0.125-0.341-0.309C100.487,23.499,100.6,23.733,100.702,23.899z
					 M100.98,22.388c-0.063-0.125-0.197-0.277-0.399-0.461c0.041,0,0.086-0.014,0.14-0.031c0.049-0.023,0.085-0.031,0.107-0.031
					C100.828,21.985,100.877,22.159,100.98,22.388z M101.164,23.499c-0.206,0-0.31,0.018-0.31,0.059l0.157,0.494
					C101.052,23.952,101.105,23.765,101.164,23.499z M101.505,14.056l-0.031,0.125l-0.095-0.031l0.063-0.121L101.505,14.056z
					 M101.751,16.185l-0.063-0.059l-0.152,0.154l0.063,0.063L101.751,16.185z M101.966,13.873l-0.058,0.125l-0.063-0.031
					l0.063-0.125L101.966,13.873z M102.433,13.626l-0.403,0.247l-0.031-0.063l0.403-0.247L102.433,13.626z M102.464,16.433
					c-0.022-0.02-0.045-0.059-0.063-0.121c-0.148,0.143-0.238,0.268-0.278,0.371C102.267,16.517,102.379,16.433,102.464,16.433z
					 M102.71,16.987l-0.22,0.221l-0.026-0.064l0.184-0.184L102.71,16.987z M102.737,15.078l-0.184,0.152l-0.063-0.063l0.22-0.152
					L102.737,15.078z M102.831,16.216l-0.031-0.031l-0.121,0.096l0.059,0.063L102.831,16.216z M103.355,12.331l-0.372,0.31
					l-0.026-0.063l0.336-0.278L103.355,12.331z M103.203,15.415h-0.063l-0.063,0.125h0.063L103.203,15.415z M103.817,15.23h-0.09
					v-0.184h0.09V15.23z M104.032,14.953l-0.179,0.063v-0.063l0.152-0.063L104.032,14.953z M104.588,14.953l-0.125,0.094
					l-0.054-0.031l0.116-0.125L104.588,14.953z"/>
			</g>
		</g>
	</g>
	<g>
		<path fill="#332D2D" d="M115.165,13.003v10.648h-2.948V13.003h-3.738v-2.55h10.425v2.55H115.165z"/>
		<path fill="#332D2D" d="M129.257,10.453h2.948v13.198h-2.948v-5.193h-5.253v5.193h-2.949V10.453h2.949v5.513h5.253V10.453z"/>
		<path fill="#332D2D" d="M144.97,10.453v2.622h-6.57v2.721h5.907v2.514h-5.907v2.738h6.776v2.604h-9.726V10.453H144.97z"/>
		<path fill="#332D2D" d="M159.626,15.343l-3.568,7.215h-1.757l-3.549-7.215v8.309h-2.949V10.453h3.988l3.397,7.251l3.415-7.251
			h3.971v13.198h-2.948V15.343z"/>
		<path fill="#332D2D" d="M175.339,10.453v2.622h-6.57v2.721h5.907v2.514h-5.907v2.738h6.776v2.604h-9.726V10.453H175.339z"/>
		<path fill="#332D2D" d="M181.264,13.088c-0.286,0.233-0.43,0.538-0.43,0.923c0,0.385,0.179,0.69,0.52,0.914
			c0.35,0.229,1.147,0.498,2.402,0.807c1.255,0.306,2.223,0.771,2.913,1.386c0.699,0.617,1.04,1.52,1.04,2.701
			c0,1.184-0.439,2.143-1.326,2.883c-0.888,0.734-2.063,1.102-3.505,1.102c-2.089,0-3.972-0.775-5.647-2.32l1.757-2.156
			c1.425,1.246,2.734,1.873,3.944,1.873c0.547,0,0.968-0.117,1.281-0.35c0.305-0.232,0.457-0.551,0.457-0.945
			c0-0.398-0.161-0.713-0.492-0.945c-0.323-0.234-0.978-0.471-1.945-0.709c-1.533-0.363-2.662-0.838-3.371-1.426
			c-0.708-0.586-1.066-1.505-1.066-2.755c0-1.255,0.448-2.219,1.354-2.9c0.896-0.681,2.026-1.022,3.37-1.022
			c0.879,0,1.767,0.152,2.645,0.453c0.879,0.305,1.649,0.731,2.304,1.287l-1.488,2.151c-1.146-0.87-2.33-1.3-3.559-1.3
			C181.937,12.739,181.542,12.855,181.264,13.088z"/>
	</g>
</g>
</svg>
