<?xml version="1.0" encoding="UTF-8" standalone="no"?>
<svg width="15px" height="13px" viewBox="0 0 15 13" version="1.1" xmlns="http://www.w3.org/2000/svg" xmlns:xlink="http://www.w3.org/1999/xlink">
    <!-- Generator: Sketch 45.2 (43514) - http://www.bohemiancoding.com/sketch -->
    <title>Shape Copy 2</title>
    <desc>Created with Sketch.</desc>
    <defs></defs>
    <g id="QUIENES-SOMOS" stroke="none" stroke-width="1" fill="none" fill-rule="evenodd">
        <g transform="translate(-1031.000000, -1047.000000)" id="Group-2" fill="#787878">
            <g transform="translate(1019.000000, 1034.000000)">
                <path d="M26.8373355,18.6921096 L22.2220081,13.2016032 C22.006526,12.9521765 21.6574276,12.9232711 21.4062049,13.1764118 C21.1816073,13.4027141 21.1760111,13.8440795 21.3837047,14.0898243 L25.088584,18.4902881 L12.5769267,18.4902881 C12.2582901,18.4902881 12,18.7794719 12,19.1362202 C12,19.4929685 12.2582901,19.7821845 12.5769267,19.7821845 L25.088584,19.7821845 L21.3837047,24.1826612 C21.17604,24.4283738 21.1907804,24.8588875 21.4062049,25.0960415 C21.6336583,25.3464047 22.0098145,25.3241201 22.2220081,25.0708501 L26.8373355,19.5803631 C26.9729421,19.4314434 26.9977211,19.2880142 27,19.1363494 C27,18.9868807 26.9192591,18.7884181 26.8373355,18.6921096 Z" id="Shape-Copy-2" transform="translate(19.500000, 19.136364) scale(-1, 1) rotate(-360.000000) translate(-19.500000, -19.136364) "></path>
            </g>
        </g>
    </g>
</svg>