<?xml version="1.0" encoding="UTF-8" standalone="no"?>
<svg width="16px" height="14px" viewBox="0 0 16 14" version="1.1" xmlns="http://www.w3.org/2000/svg" xmlns:xlink="http://www.w3.org/1999/xlink">
    <!-- Generator: Sketch 45.2 (43514) - http://www.bohemiancoding.com/sketch -->
    <title>Shape Copy 2</title>
    <desc>Created with Sketch.</desc>
    <defs></defs>
    <g id="QUIENES-SOMOS" stroke="none" stroke-width="1" fill="none" fill-rule="evenodd">
        <g id="QUIENES-SOMOS-Copy-5" transform="translate(-1123.000000, -403.000000)" fill="#787878">
            <g id="Group-2" transform="translate(1041.000000, 380.000000)">
                <g id="Group-2-Copy-4" transform="translate(87.000000, 32.000000) scale(-1, 1) translate(-87.000000, -32.000000) translate(55.000000, 0.000000)">
                    <path d="M36.7801926,29.4635382 L32.1648653,23.9730318 C31.9493831,23.7236051 31.6002848,23.6946996 31.349062,23.9478404 C31.1244644,24.1741427 31.1188683,24.6155081 31.3265619,24.8612529 L35.0314412,29.2617167 L22.5197839,29.2617167 C22.2011472,29.2617167 21.9428571,29.5509005 21.9428571,29.9076488 C21.9428571,30.264397 22.2011472,30.5536131 22.5197839,30.5536131 L35.0314412,30.5536131 L31.3265619,34.9540898 C31.1188971,35.1998024 31.1336376,35.6303161 31.349062,35.86747 C31.5765154,36.1178333 31.9526716,36.0955486 32.1648653,35.8422787 L36.7801926,30.3517916 C36.9157993,30.202872 36.9405783,30.0594428 36.9428571,29.9077779 C36.9428571,29.7583093 36.8621162,29.5598466 36.7801926,29.4635382 Z" id="Shape-Copy-2" transform="translate(29.442857, 29.907792) scale(-1, 1) rotate(-360.000000) translate(-29.442857, -29.907792) "></path>
                </g>
            </g>
        </g>
    </g>
</svg>