<?xml version="1.0" encoding="utf-8"?>
<!-- Generator: Adobe Illustrator 21.1.0, SVG Export Plug-In . SVG Version: 6.00 Build 0)  -->
<svg version="1.1" id="Capa_1" xmlns="http://www.w3.org/2000/svg" xmlns:xlink="http://www.w3.org/1999/xlink" x="0px" y="0px"
	 viewBox="0 0 16 14" style="enable-background:new 0 0 16 14;" xml:space="preserve">
<style type="text/css">
	.st0{fill:#FFFFFF;}
</style>
<title>Shape Copy 2</title>
<desc>Created with Sketch.</desc>
<g id="QUIENES-SOMOS">
	<g id="Group-2-Copy-2" transform="translate(-1094.000000, -1040.000000)">
		
			<g transform="translate(1099.000000, 1049.000000) scale(-1, 1) translate(-1099.000000, -1049.000000) translate(1067.000000, 1017.000000)">
			<g id="Group-16">
				<path id="Shape-Copy-2" class="st0" d="M22.1,29.5l4.6-5.5c0.2-0.2,0.6-0.3,0.8,0c0.2,0.2,0.2,0.7,0,0.9l-3.7,4.4h12.5
					c0.3,0,0.6,0.3,0.6,0.6c0,0.4-0.3,0.6-0.6,0.6H23.9l3.7,4.4c0.2,0.2,0.2,0.7,0,0.9c-0.2,0.3-0.6,0.2-0.8,0l-4.6-5.5
					C22.1,30.2,22,30,22,29.9C21.9,29.8,22,29.6,22.1,29.5z"/>
			</g>
		</g>
	</g>
</g>
</svg>
