<?xml version="1.0" encoding="utf-8"?>
<!-- Generator: Adobe Illustrator 21.1.0, SVG Export Plug-In . SVG Version: 6.00 Build 0)  -->
<svg version="1.1" id="Capa_1" xmlns="http://www.w3.org/2000/svg" xmlns:xlink="http://www.w3.org/1999/xlink" x="0px" y="0px"
	 viewBox="0 0 15 13" style="enable-background:new 0 0 15 13;" xml:space="preserve">
<style type="text/css">
	.st0{fill:#FFFFFF;}
</style>
<title>Shape Copy 2</title>
<desc>Created with Sketch.</desc>
<g id="QUIENES-SOMOS">
	<g id="QUIENES-SOMOS-Copy-5" transform="translate(-1053.000000, -393.000000)">
		<g id="Group-2" transform="translate(1041.000000, 380.000000)">
			<g id="Group-2-Copy-3">
				<path id="Shape-Copy-2" class="st0" d="M12.2,18.7l4.6-5.5c0.2-0.2,0.6-0.3,0.8,0c0.2,0.2,0.2,0.7,0,0.9l-3.7,4.4h12.5
					c0.3,0,0.6,0.3,0.6,0.6c0,0.4-0.3,0.6-0.6,0.6H13.9l3.7,4.4c0.2,0.2,0.2,0.7,0,0.9c-0.2,0.3-0.6,0.2-0.8,0l-4.6-5.5
					C12,19.4,12,19.3,12,19.1C12,19,12.1,18.8,12.2,18.7z"/>
			</g>
		</g>
	</g>
</g>
</svg>
