<?xml version="1.0" encoding="UTF-8" standalone="no"?>
<svg width="11px" height="14px" viewBox="0 0 11 14" version="1.1" xmlns="http://www.w3.org/2000/svg" xmlns:xlink="http://www.w3.org/1999/xlink">
    <!-- Generator: Sketch 43.2 (39069) - http://www.bohemiancoding.com/sketch -->
    <title>Page 1</title>
    <desc>Created with Sketch.</desc>
    <defs>
        <polygon id="path-1" points="5.48693415 0 0 0 0 13.9162745 5.48693415 13.9162745 10.9738683 13.9162745 10.9738683 0 5.48693415 0"></polygon>
    </defs>
    <g id="Symbols" stroke="none" stroke-width="1" fill="none" fill-rule="evenodd">
        <g id="FOOTER-/-Transparente" transform="translate(-30.000000, -35.000000)">
            <g id="Page-1" transform="translate(30.000000, 35.000000)">
                <mask id="mask-2" fill="white">
                    <use xlink:href="#path-1"></use>
                </mask>
                <g id="Clip-2"></g>
                <path d="M10.9738683,2.49090196 C10.9738683,1.1172549 9.88191707,0 8.53938049,0 C7.19738049,0 6.10516098,1.1172549 6.10516098,2.49090196 C6.10516098,2.66796078 6.12420976,2.83980392 6.15828293,3.00615686 L3.20169756,5.08968627 C2.88242927,4.88929412 2.50896585,4.76686275 2.10706341,4.76686275 C0.944819512,4.76686275 -0.000107317073,5.73313725 -0.000107317073,6.92176471 C-0.000107317073,8.11094118 0.94455122,9.07803922 2.10706341,9.07803922 C2.69972195,9.07803922 3.23442927,8.82494118 3.61781951,8.41921569 C3.63740488,8.43843137 3.65189268,8.46203922 3.67577073,8.47768627 L6.38445366,10.2941176 C6.21167317,10.6350588 6.10516098,11.016902 6.10516098,11.4259216 C6.10516098,12.7995686 7.19738049,13.9162745 8.53938049,13.9162745 C9.88191707,13.9162745 10.9738683,12.7995686 10.9738683,11.4259216 C10.9738683,10.0522745 9.88191707,8.93501961 8.53938049,8.93501961 C7.92874634,8.93501961 7.37606341,9.17466667 6.94786829,9.55705882 L4.17479512,7.69752941 C4.14528293,7.67721569 4.11228293,7.67007843 4.07955122,7.65827451 C4.16272195,7.42713725 4.21423415,7.18117647 4.21423415,6.9214902 C4.21423415,6.48941176 4.08625854,6.08835294 3.87189268,5.74988235 L6.5220878,3.88239216 C6.95994146,4.54560784 7.70042927,4.9812549 8.53938049,4.9812549 C9.88191707,4.9812549 10.9738683,3.86454902 10.9738683,2.49090196 Z" id="Fill-1" fill="#FFFFFF" mask="url(#mask-2)"></path>
            </g>
        </g>
    </g>
</svg>