<?xml version="1.0" encoding="UTF-8" standalone="no"?>
<svg width="87px" height="11px" viewBox="0 0 87 11" version="1.1" xmlns="http://www.w3.org/2000/svg" xmlns:xlink="http://www.w3.org/1999/xlink">
    <!-- Generator: Sketch 43.2 (39069) - http://www.bohemiancoding.com/sketch -->
    <title>Page 1</title>
    <desc>Created with Sketch.</desc>
    <defs>
        <polygon id="path-1" points="0 0.820737891 0 7.03300859 5.95808328 7.03300859 5.95808328 0.820737891 2.93540372e-20 0.820737891"></polygon>
        <polygon id="path-3" points="5.23725657 7.02019875 5.23725657 0.833144277 0.135696495 0.833144277 0.135696495 7.02019875"></polygon>
        <polygon id="path-5" points="0.0738587465 10.0864925 8.83510888 10.0864925 8.83510888 0.000504324624 0.0738587465 0.000504324624"></polygon>
    </defs>
    <g id="Symbols" stroke="none" stroke-width="1" fill="none" fill-rule="evenodd">
        <g id="FOOTER" transform="translate(-1087.000000, -35.000000)">
            <g id="Page-1" transform="translate(1087.000000, 35.000000)">
                <g id="Group-3" transform="translate(0.000000, 2.017298)">
                    <mask id="mask-2" fill="white">
                        <use xlink:href="#path-1"></use>
                    </mask>
                    <g id="Clip-2"></g>
                    <path d="M3.31238067,7.03300859 C2.8369556,7.03300859 2.39618567,6.9573599 1.9922368,6.79496737 C1.586122,6.63660944 1.23740475,6.4187412 0.941753166,6.13934536 C0.645018613,5.86196682 0.414345402,5.53516446 0.249733533,5.15591235 C0.0851216638,4.77867753 -0.000433189127,4.37320053 -0.000433189127,3.9445246 L-0.000433189127,3.92838622 C-0.000433189127,3.49769299 0.0851216638,3.09725924 0.249733533,2.72103307 C0.414345402,2.34379825 0.645018613,2.01598725 0.941753166,1.72953086 C1.23740475,1.45114367 1.58828794,1.22520624 2.00090059,1.06382236 C2.41351323,0.900421181 2.87052776,0.820737891 3.36761229,0.820737891 C3.66542981,0.820737891 3.94267086,0.841919525 4.19392055,0.886300092 C4.44192133,0.931689308 4.6660967,0.995234211 4.86861262,1.0769348 C5.07221151,1.15863539 5.26064878,1.25445707 5.43175849,1.36742578 C5.60503414,1.48342045 5.76423114,1.6095016 5.91368139,1.7446606 L5.00831611,2.71699847 C4.75490047,2.50215618 4.49715294,2.33875501 4.23723946,2.21872575 C3.97624301,2.09567054 3.68275738,2.03918618 3.35678256,2.03918618 C3.08603935,2.03918618 2.83478966,2.08760134 2.60628239,2.18241437 C2.37344324,2.28025335 2.17850813,2.41742965 2.01173031,2.58789137 C1.8449525,2.76339634 1.71499576,2.95907429 1.62402604,3.18501172 C1.53089038,3.40792321 1.48540552,3.65100767 1.48540552,3.90821323 L1.48540552,3.92838622 C1.48540552,4.18660042 1.53089038,4.42665894 1.62402604,4.65763962 C1.71499576,4.88761165 1.84278655,5.08631555 2.00523248,5.25879457 C2.1676784,5.43228224 2.36477945,5.56844989 2.59436969,5.66729752 C2.82612588,5.76816244 3.07954152,5.8165776 3.35678256,5.8165776 C3.72715926,5.8165776 4.03797246,5.75404135 4.29355405,5.62695155 C4.55021861,5.50187904 4.8014683,5.33141732 5.052718,5.11254043 L5.95808328,5.9618231 C5.79130546,6.12925887 5.61911278,6.28055626 5.4393393,6.40966336 C5.26064878,6.53977911 5.06571367,6.65375648 4.85669992,6.75159545 C4.64443724,6.84237389 4.41268106,6.91499663 4.16034839,6.96542909 C3.9090987,7.01182696 3.62535982,7.03300859 3.31238067,7.03300859" id="Fill-1" fill="#000000" mask="url(#mask-2)"></path>
                </g>
                <path d="M10.5061359,5.85783136 C10.8570191,5.85783136 11.1234304,5.78218266 11.3118677,5.62685068 C11.498139,5.4715187 11.5934407,5.26978885 11.5934407,5.01359194 L11.5934407,4.9964449 C11.5934407,4.71200582 11.4959731,4.49817218 11.298872,4.35494398 C11.100688,4.21373309 10.8277789,4.14312764 10.4768957,4.14312764 L9.06794803,4.14312764 L9.06794803,5.85783136 L10.5061359,5.85783136 Z M7.64600472,2.93880044 L10.5971057,2.93880044 C11.4136672,2.93880044 12.0417914,3.14053029 12.4793124,3.54802459 C12.8453572,3.89096533 13.0316286,4.35090939 13.0316286,4.92281351 L13.0316286,4.94096919 C13.0316286,5.42512083 12.9027548,5.82353728 12.6471732,6.13016665 C12.3926746,6.43477873 12.0623679,6.66172481 11.6486723,6.8029357 L13.2265637,8.9493413 L11.5642004,8.9493413 L10.1823271,7.02685583 L9.06794803,7.02685583 L9.06794803,8.9493413 L7.64600472,8.9493413 L7.64600472,2.93880044 Z" id="Fill-4" fill="#000000"></path>
                <polygon id="Fill-6" fill="#000000" points="14.824815 2.93930477 19.68628 2.93930477 19.68628 4.11337249 16.2240158 4.11337249 16.2240158 5.33484672 19.2693354 5.33484672 19.2693354 6.51093174 16.2240158 6.51093174 16.2240158 7.77476925 19.7328478 7.77476925 19.7328478 8.94984562 14.824815 8.94984562"></polygon>
                <path d="M24.2019517,5.97110267 C24.5593328,5.97110267 24.8365738,5.88234153 25.0336749,5.70885386 C25.227527,5.53637484 25.3271605,5.32052391 25.3271605,5.0663443 L25.3271605,5.04717996 C25.3271605,4.75063708 25.2231951,4.52469965 25.0163473,4.36936767 C24.8105825,4.21807028 24.5268436,4.14343024 24.1770434,4.14343024 L23.076743,4.14343024 L23.076743,5.97110267 L24.2019517,5.97110267 Z M21.6547997,2.93910304 L24.2950874,2.93910304 C24.6795427,2.93910304 25.029343,2.9875182 25.3314924,3.08737448 C25.6358077,3.18924805 25.8924723,3.32945029 26.1079839,3.51302446 C26.3191636,3.69760727 26.4816095,3.91648416 26.5942387,4.17066377 C26.7101168,4.42686067 26.7675143,4.70928246 26.7675143,5.01792913 L26.7675143,5.03305887 C26.7675143,5.38104286 26.6982041,5.68868088 26.5606665,5.95294698 C26.4296268,6.21721308 26.2390236,6.43608997 26.0061845,6.61562954 C25.7668475,6.7911345 25.4917724,6.92730215 25.1722954,7.01303734 C24.8571503,7.10381577 24.5170968,7.14617904 24.1553839,7.14617904 L23.076743,7.14617904 L23.076743,8.94964389 L21.6547997,8.94964389 L21.6547997,2.93910304 Z" id="Fill-8" fill="#000000"></path>
                <polygon id="Fill-10" fill="#000000" points="28.3561272 2.93930477 33.2143433 2.93930477 33.2143433 4.11337249 29.758577 4.11337249 29.758577 5.33484672 32.8006476 5.33484672 32.8006476 6.51093174 29.758577 6.51093174 29.758577 7.77476925 33.2587451 7.77476925 33.2587451 8.94984562 28.3561272 8.94984562"></polygon>
                <path d="M37.4555897,9.03749724 C36.965003,9.03749724 36.4830801,8.95781395 36.0130699,8.79844737 C35.5354789,8.64109809 35.1055387,8.40003092 34.7210833,8.07625451 L35.5582213,7.13821071 C35.851707,7.36112219 36.1549394,7.54066176 36.4679185,7.67279481 C36.7743998,7.80391921 37.1166192,7.86847276 37.48483,7.86847276 C37.7815645,7.86847276 38.0079059,7.81703165 38.1725177,7.71818403 C38.3371296,7.61832775 38.4161866,7.47913416 38.4161866,7.30362919 L38.4161866,7.2874908 C38.4161866,7.19872967 38.401025,7.12509827 38.3674528,7.05651012 C38.3327977,6.99195657 38.2656534,6.92841167 38.1725177,6.87293596 C38.0772161,6.8144343 37.9440105,6.75895859 37.7772327,6.70045694 C37.6061229,6.64498123 37.3873624,6.58143633 37.1166192,6.52091737 C36.7917274,6.44426003 36.4949928,6.36558539 36.2307475,6.27178101 C35.968668,6.18100258 35.7401608,6.06803386 35.5582213,5.93085756 C35.374116,5.79872451 35.2300806,5.62927144 35.1293641,5.42955889 C35.0275647,5.22782904 34.9788309,4.97869268 34.9788309,4.6821498 L34.9788309,4.66500276 C34.9788309,4.38964152 35.0297306,4.14252245 35.1412768,3.92263692 C35.25174,3.69871678 35.4055222,3.51211667 35.6047892,3.35174144 C35.8018902,3.18934891 36.0401442,3.06730236 36.3152193,2.98156717 C36.5924604,2.89482333 36.8946098,2.85044277 37.2270825,2.85044277 C37.7014246,2.85044277 38.1367796,2.91802227 38.5320647,3.04914667 C38.9273498,3.18127972 39.2933946,3.37090578 39.6280332,3.61802484 L38.8872798,4.6165876 C38.600292,4.43200478 38.3143872,4.28877659 38.0393121,4.18085112 C37.762071,4.07292565 37.48483,4.02148454 37.205423,4.02148454 C36.9314309,4.02148454 36.725666,4.071917 36.5859625,4.17076463 C36.4462591,4.27062091 36.3791147,4.39569341 36.3791147,4.54396485 L36.3791147,4.56212054 C36.3791147,4.66096816 36.3996912,4.74266875 36.4375953,4.81428285 C36.4787482,4.88892289 36.5502244,4.9504505 36.6563558,5.0099608 C36.7592382,5.06644516 36.9011076,5.12091222 37.0830471,5.17336198 C37.2671525,5.22278579 37.4956597,5.28330475 37.7707348,5.3518929 C38.0945437,5.43056754 38.3901953,5.52437192 38.6446939,5.62221089 C38.8981095,5.72307582 39.1136211,5.84512238 39.2890627,5.98431597 C39.4612554,6.12552687 39.596627,6.28691075 39.6832648,6.47653681 C39.7742345,6.66515421 39.8208024,6.89109165 39.8208024,7.15737505 L39.8208024,7.17250478 C39.8208024,7.47308226 39.7590729,7.73533106 39.6442778,7.96832904 C39.5283997,8.20233566 39.3659538,8.39397902 39.1601889,8.55233695 C38.9511752,8.70968623 38.7031744,8.8276982 38.4140207,8.91242473 C38.1281158,8.99614262 37.8086389,9.03749724 37.4555897,9.03749724" id="Fill-12" fill="#000000"></path>
                <polygon id="Fill-14" fill="#000000" points="54.9397527 4.15866084 52.977406 4.15866084 52.977406 2.9392039 58.3240428 2.9392039 58.3240428 4.15866084 56.3606131 4.15866084 56.3606131 8.94974476 54.9397527 8.94974476"></polygon>
                <polygon id="Fill-16" fill="#000000" points="60.0712029 2.93930477 64.9315849 2.93930477 64.9315849 4.11337249 61.4714867 4.11337249 61.4714867 5.33484672 64.5135574 5.33484672 64.5135574 6.51093174 61.4714867 6.51093174 61.4714867 7.77476925 64.9738208 7.77476925 64.9738208 8.94984562 60.0712029 8.94984562"></polygon>
                <polygon id="Fill-18" fill="#000000" points="72.5718499 2.93930477 70.414568 5.87447407 72.6649855 8.94984562 71.0037052 8.94984562 69.5579365 6.88614926 68.1002551 8.94984562 66.4866256 8.94984562 68.739209 5.89464706 66.5797612 2.93930477 68.2399586 2.93930477 69.5850108 4.88902376 70.9571374 2.93930477"></polygon>
                <path d="M77.9274753,6.43508132 L77.0686779,4.48132773 L76.2098805,6.43508132 L77.9274753,6.43508132 Z M76.4297239,2.89472247 L77.741204,2.89472247 L80.5081996,8.94964389 L79.0234438,8.94964389 L78.4310577,7.6020885 L75.7019662,7.6020885 L75.113912,8.94964389 L73.6648943,8.94964389 L76.4297239,2.89472247 Z" id="Fill-20" fill="#000000"></path>
                <g id="Group-24" transform="translate(81.222962, 2.017298)">
                    <mask id="mask-4" fill="white">
                        <use xlink:href="#path-3"></use>
                    </mask>
                    <g id="Clip-23"></g>
                    <path d="M2.87453476,7.02019875 C2.38394807,7.02019875 1.90202517,6.94051546 1.42768307,6.78114888 C0.954423948,6.6237996 0.524483738,6.38273243 0.135696495,6.05895602 L0.972834486,5.12091222 C1.26956904,5.3438237 1.57605035,5.52336327 1.88253166,5.65549632 C2.1955108,5.78662072 2.53664724,5.85117427 2.90160908,5.85117427 C3.19834364,5.85117427 3.4268509,5.79973316 3.59146277,5.70088554 C3.75390869,5.60102926 3.83513165,5.46183566 3.83513165,5.2863307 L3.83513165,5.27019231 C3.83513165,5.18143117 3.81997003,5.10779978 3.78206599,5.03921163 C3.75065977,4.97465808 3.68459843,4.91111318 3.59146277,4.85563747 C3.49399522,4.79713581 3.3629555,4.7416601 3.19401174,4.68315845 C3.02506798,4.62768274 2.80305856,4.56413784 2.53664724,4.50361888 C2.20850648,4.42696154 1.91177192,4.3482869 1.6496925,4.25448252 C1.38328119,4.16370409 1.16127176,4.05073537 0.972834486,3.91355907 C0.788729106,3.78142602 0.646859667,3.61197295 0.54830914,3.4122604 C0.446509694,3.21053055 0.395609972,2.96139418 0.395609972,2.66485131 L0.395609972,2.64770427 C0.395609972,2.37234303 0.44867564,2.12522396 0.560221841,1.90533842 C0.666353177,1.68141829 0.822301264,1.49481818 1.01940232,1.33444295 C1.22083526,1.17205042 1.45692334,1.05000386 1.73199843,0.964268679 C2.00923948,0.877524844 2.31138889,0.833144277 2.64386155,0.833144277 C3.12036959,0.833144277 3.55139277,0.900723776 3.9488438,1.03184818 C4.34629483,1.16398123 4.71017369,1.35360729 5.04264635,1.60072635 L4.30405889,2.59928911 C4.01490514,2.41470629 3.73333221,2.2714781 3.45825711,2.16355263 C3.17668418,2.05562716 2.90160908,2.00418605 2.62545101,2.00418605 C2.34820997,2.00418605 2.14244513,2.05461851 2.00490759,2.15346614 C1.86520409,2.25332241 1.79805978,2.37839492 1.79805978,2.52666636 L1.79805978,2.54482205 C1.79805978,2.64366967 1.81647031,2.72537026 1.85545734,2.79698436 C1.89552733,2.8716244 1.96916948,2.93315201 2.07313487,2.99266231 C2.17601729,3.04914667 2.32221862,3.10361373 2.50199211,3.15606349 C2.68393154,3.2054873 2.91243881,3.26600626 3.18751391,3.33459441 C3.51565467,3.41326905 3.80480842,3.50707343 4.06147297,3.6049124 C4.31488861,3.70577733 4.52823426,3.82782389 4.70800775,3.96701748 C4.88236637,4.10822838 5.01340608,4.26961226 5.10220986,4.45923831 C5.19317957,4.64785572 5.23758146,4.87379315 5.23758146,5.14007656 L5.23758146,5.15520629 C5.23758146,5.45578377 5.17801795,5.71803257 5.05997392,5.95103055 C4.9451788,6.18503717 4.78489882,6.37668053 4.57480209,6.53503846 C4.36795428,6.69238774 4.11995351,6.81039971 3.83296571,6.89512624 C3.54489494,6.97884413 3.22541796,7.02019875 2.87453476,7.02019875" id="Fill-22" fill="#000000" mask="url(#mask-4)"></path>
                </g>
                <g id="Group-27" transform="translate(42.235940, 0.000000)">
                    <mask id="mask-6" fill="white">
                        <use xlink:href="#path-5"></use>
                    </mask>
                    <g id="Clip-26"></g>
                    <path d="M8.83510888,5.02256892 L8.77554537,5.06493219 L8.74413916,5.04980245 L8.80370266,4.99432674 L8.83510888,5.02256892 Z M8.56219972,5.02256892 L8.4755619,5.04980245 L8.4755619,5.02256892 L8.54703811,4.99432674 L8.56219972,5.02256892 Z M8.41383245,5.14865007 L8.45606839,5.14865007 L8.45606839,5.06493219 L8.41383245,5.06493219 L8.41383245,5.14865007 Z M8.15608492,5.23337661 L8.12684465,5.23337661 L8.09652141,5.29086962 L8.12684465,5.29086962 L8.15608492,5.23337661 Z M8.23189301,3.82530226 L8.04995358,3.96953911 L8.03587493,3.93827098 L8.2004868,3.81218982 L8.23189301,3.82530226 Z M7.97414548,5.59749899 L7.95898386,5.5853952 L7.90266928,5.62674982 L7.9297436,5.65600064 L7.97414548,5.59749899 Z M7.9297436,5.07703598 L7.83877388,5.14865007 L7.80953361,5.12141654 L7.91458198,5.04980245 L7.9297436,5.07703598 Z M7.91458198,5.95052622 L7.80953361,6.0483652 L7.79437199,6.02113167 L7.88317577,5.93640513 L7.91458198,5.95052622 Z M7.79437199,5.69634661 C7.78354227,5.68626012 7.77379551,5.66911308 7.76513173,5.64087091 C7.69257255,5.70643311 7.64817066,5.75989152 7.62976013,5.80931533 C7.69690444,5.73467529 7.754302,5.69634661 7.79437199,5.69634661 L7.79437199,5.69634661 Z M7.77921037,4.41435342 L7.58319229,4.53034809 L7.56803067,4.49907996 L7.76513173,4.38913719 L7.77921037,4.41435342 Z M7.55286905,4.53034809 L7.52146284,4.5838065 L7.49222258,4.57170271 L7.52146284,4.51521835 L7.55286905,4.53034809 Z M7.44565475,5.5853952 L7.41749745,5.55715302 L7.33952341,5.62674982 L7.37309557,5.65600064 L7.44565475,5.5853952 Z M7.32436179,4.61709192 L7.31244909,4.66752438 L7.26588126,4.65642924 L7.29512152,4.59994488 L7.32436179,4.61709192 Z M7.15974992,8.91696365 C7.06011642,8.91696365 7.00813373,8.9260415 7.00813373,8.94520583 L7.08394182,9.17114326 C7.10451831,9.1227281 7.13050965,9.04001886 7.15974992,8.91696365 L7.15974992,8.91696365 Z M7.0687802,8.41163038 C7.03953994,8.35615467 6.9734786,8.28454058 6.8738451,8.20183134 C6.89117266,8.20183134 6.91499806,8.19678809 6.93990644,8.18771025 C6.96698076,8.17762376 6.98430832,8.17459781 6.99080616,8.17459781 C6.99080616,8.22704757 7.01788048,8.30975681 7.0687802,8.41163038 L7.0687802,8.41163038 Z M6.93124265,9.10053782 C6.93990644,9.05413995 6.93990644,8.9916037 6.93124265,8.91696365 C6.91283212,8.90990311 6.8576005,8.86148795 6.76663079,8.77978736 C6.82727726,8.91696365 6.88250888,9.02690642 6.93124265,9.10053782 L6.93124265,9.10053782 Z M6.49372163,9.66538139 L6.52512785,9.66538139 L6.52512785,9.56855107 L6.49372163,9.56855107 L6.49372163,9.66538139 Z M6.5110492,5.9787684 L6.48072596,5.95052622 L6.42007948,6.00902788 L6.44931975,6.02113167 L6.5110492,5.9787684 Z M6.49372163,9.52517915 L6.49372163,9.3970807 C6.43415813,9.36984717 6.39192219,9.35270013 6.3756776,9.35270013 C6.3756776,9.36480392 6.36701381,9.37085582 6.36051598,9.37690771 C6.34968625,9.38094231 6.34318841,9.39203745 6.34318841,9.41019314 C6.36268192,9.42935747 6.39192219,9.48281588 6.43415813,9.56855107 L6.49372163,9.52517915 Z M6.2522187,9.90241397 L6.19373816,9.96091562 C6.15041925,9.91350911 6.12334493,9.84492096 6.10276845,9.75010793 C6.12984277,9.76927227 6.16558087,9.79347985 6.20565086,9.83281717 C6.1764106,9.80255769 6.16124898,9.81264418 6.16124898,9.84794691 C6.16124898,9.8640853 6.19373816,9.88526693 6.2522187,9.90241397 L6.2522187,9.90241397 Z M6.16124898,5.71147635 L6.14933628,5.68323417 L6.08760683,5.73870988 L6.11684709,5.75283097 L6.16124898,5.71147635 Z M5.78762335,9.63411327 L5.75080228,9.64823436 L5.5266269,9.3970807 L5.55911609,9.36984717 L5.78762335,9.63411327 Z M5.46814637,1.85742759 C5.45731664,1.85742759 5.43565719,1.87255732 5.40641692,1.89777356 L5.43565719,1.99662118 C5.46814637,1.93206763 5.47789313,1.88365247 5.46814637,1.85742759 L5.46814637,1.85742759 Z M5.1042675,2.86910278 C5.1042675,2.8428779 5.08477399,2.81665302 5.04253805,2.79849733 C5.04253805,2.8448952 5.02521049,2.87818062 4.98514049,2.90037091 C4.98514049,3.02140881 4.96456401,3.12227374 4.92232807,3.20397433 C5.04253805,3.0456164 5.1042675,2.93668228 5.1042675,2.86910278 L5.1042675,2.86910278 Z M4.90716645,3.79706008 L4.87792618,3.782939 L4.84760295,3.83942335 L4.88983889,3.85354444 L4.90716645,3.79706008 Z M4.78695647,3.12227374 C4.72522702,3.16968025 4.67216135,3.22112137 4.62126163,3.27659707 C4.62126163,3.36334091 4.53029191,3.48841342 4.34835247,3.65685784 C4.287706,3.73048923 4.19673628,3.83337146 4.07760927,3.96953911 L4.10793251,4.06536078 C4.11876224,4.04821375 4.13717277,4.02904941 4.16641304,4.00685913 C4.17724277,3.99878993 4.19240439,3.99878993 4.21298087,4.00685913 L4.10793251,4.11881919 L4.16641304,4.16319976 C4.20756601,4.09965486 4.26388059,4.00685913 4.33210788,3.89691636 C4.24330411,3.9140634 4.20323412,3.92213259 4.21298087,3.92213259 C4.34293761,3.7728525 4.52054515,3.56910536 4.74255458,3.3038306 C4.75230134,3.25642409 4.76529701,3.19691378 4.78695647,3.12227374 L4.78695647,3.12227374 Z M3.92599307,3.44605015 C3.89566984,3.44605015 3.85559984,3.4430242 3.80470012,3.43092041 C3.84585309,3.37443605 3.86642957,3.3078652 3.86642957,3.2362511 C3.81552985,3.32803819 3.79062147,3.37040145 3.79062147,3.37040145 C3.79062147,3.42587716 3.81119795,3.49244801 3.849102,3.55901886 C3.90000173,3.512621 3.92599307,3.47530098 3.92599307,3.44605015 L3.92599307,3.44605015 Z M3.87942524,3.1787581 L3.86642957,3.16766296 L3.79062147,3.2362511 L3.80470012,3.2483549 L3.87942524,3.1787581 Z M3.86642957,2.65930374 L3.80470012,2.71477944 L3.79062147,2.68653727 L3.8371893,2.644174 L3.86642957,2.65930374 Z M3.97039496,2.95282067 C3.97039496,2.91751794 3.95956523,2.90037091 3.94223767,2.90037091 C3.87942524,2.96189851 3.81119795,3.05570289 3.72889202,3.1787581 C3.89242092,3.06679803 3.97039496,2.98913204 3.97039496,2.95282067 L3.97039496,2.95282067 Z M3.79062147,3.19287919 C3.72022824,3.19287919 3.69531986,3.19691378 3.71589635,3.20397433 C3.70614959,3.22414731 3.69965175,3.2443203 3.69965175,3.26348463 C3.72022824,3.25339814 3.74838553,3.23221651 3.79062147,3.19287919 L3.79062147,3.19287919 Z M3.72889202,3.01031367 L3.69965175,2.99619258 L3.66932852,3.05368559 L3.69965175,3.06679803 L3.72889202,3.01031367 Z M3.66932852,9.1842557 C3.65958176,9.19535085 3.62167771,9.20039409 3.54911853,9.20039409 C3.54911853,9.22157573 3.53395691,9.24174871 3.50471665,9.26999089 C3.53395691,9.26999089 3.55778231,9.28108603 3.5783588,9.29823307 C3.64008825,9.26293035 3.66932852,9.22359303 3.66932852,9.1842557 L3.66932852,9.1842557 Z M4.01912874,7.78021596 L3.94223767,7.70961051 C3.81986174,7.80139759 3.65958176,7.93453929 3.46031476,8.10298371 C3.49821881,8.08381938 3.55128448,8.0575945 3.62492663,8.01825718 C3.65308392,8.04549071 3.66391365,8.0596118 3.65308392,8.0596118 C3.74405364,7.99606689 3.86642957,7.90125386 4.01912874,7.78021596 L4.01912874,7.78021596 Z M4.19673628,2.26593053 C4.19673628,2.24777484 4.1880725,2.21348077 4.16641304,2.16506561 C4.1480025,2.12068504 4.13717277,2.08739961 4.13717277,2.06823528 C4.08627305,2.06823528 4.05270089,1.99662118 4.03104144,1.85742759 C3.99097144,1.80094323 3.9368228,1.75656266 3.86642957,1.73235508 C3.88808903,1.7101648 3.86642957,1.68192262 3.80470012,1.64661989 C3.76679607,1.68192262 3.75488337,1.7000783 3.7776258,1.7000783 C3.76679607,1.68898316 3.73538986,1.68595721 3.68449013,1.68595721 C3.45165098,1.68595721 3.33577289,1.81405567 3.33577289,2.06823528 C3.33577289,2.15094452 3.36068126,2.21751537 3.41158098,2.26593053 C3.51338043,2.2366797 3.57510988,2.22760186 3.59352042,2.2366797 C3.5426207,2.24777484 3.47331043,2.26593053 3.38017477,2.29215541 L3.38017477,2.44849604 C3.38017477,2.49287661 3.41591287,2.59979343 3.48197422,2.76521191 C3.54695259,2.92861308 3.59352042,3.02947801 3.62492663,3.06679803 C3.74405364,2.93668228 3.91083145,2.72284864 4.1241771,2.43134901 L4.19673628,2.26593053 Z M3.46031476,8.11811345 C3.40941504,8.14635563 3.34660261,8.17762376 3.28054127,8.21595243 L3.30653262,8.27243679 C3.32494316,8.23713406 3.38017477,8.18165835 3.46031476,8.11811345 L3.46031476,8.11811345 Z M3.12675913,9.49592832 L3.09643589,9.48281588 L3.04986806,9.52517915 L3.06719563,9.55342133 L3.12675913,9.49592832 Z M3.32277721,0.212320666 C2.9805578,0.249640688 2.84951809,0.266787725 2.92749213,0.266787725 C2.96106429,0.266787725 3.00546618,0.278891516 3.06719563,0.308142344 C3.06719563,0.298055852 3.07152752,0.285952061 3.08235725,0.266787725 C3.08993806,0.275865569 3.09643589,0.298055852 3.09643589,0.322263434 L3.1559994,0.322263434 C3.20689912,0.303099098 3.26213073,0.266787725 3.32277721,0.212320666 L3.32277721,0.212320666 Z M2.494303,7.34347083 L2.43257355,7.35557462 L2.43257355,7.32934974 L2.47697544,7.30110756 L2.494303,7.34347083 Z M2.02645874,7.55226123 L1.99288659,7.54015743 L1.91816146,7.63799641 L1.95065065,7.65312615 L2.02645874,7.55226123 Z M3.92599307,7.68136833 C3.63575636,7.26883079 3.43324044,6.95816682 3.32277721,6.75341102 C3.2318075,6.7241602 3.1159294,6.82905972 2.97622591,7.06104904 C2.9448197,7.06104904 2.90366673,7.07113554 2.85601593,7.08223068 C2.80295026,7.09937771 2.76504621,7.10341231 2.73255702,7.10341231 C2.71414649,7.10341231 2.70331676,7.09937771 2.70331676,7.08828257 L2.67407649,7.08828257 C2.66324676,7.10643826 2.63725542,7.13568909 2.59718542,7.17401776 L2.55278354,7.13266314 C2.27987438,7.42214547 2.08927117,7.75701702 1.97772497,8.12920859 C1.91816146,8.21595243 1.88675525,8.28958382 1.88675525,8.35615467 C1.88675525,8.41163038 1.91166363,8.44390716 1.96256335,8.452985 L2.53870489,7.48165578 C2.60801515,7.36061787 2.67732541,7.29707297 2.74771864,7.28698647 C2.76071432,7.256727 2.78778864,7.22344157 2.83868836,7.17401776 C2.84951809,7.19217344 2.84951809,7.20225994 2.83868836,7.20225994 C2.80944809,7.23957996 2.74771864,7.33439299 2.65891487,7.48165578 C2.67732541,7.50485471 2.68815514,7.51796715 2.68815514,7.52603635 C2.47697544,7.89217602 2.30153384,8.22704757 2.1596644,8.53972884 C2.21273007,8.55687587 2.27770844,8.56494507 2.35676546,8.56494507 C2.36434626,8.56494507 2.41957788,8.53065099 2.52137732,8.452985 C2.62534271,8.37834496 2.67732541,8.34102494 2.68815514,8.34102494 L2.76504621,8.34102494 C2.76504621,8.36018927 2.75638243,8.37834496 2.74122081,8.39851794 C2.72389324,8.41869093 2.71847838,8.43079472 2.71847838,8.44188986 C2.91882835,8.30975681 3.32277721,8.0575945 3.92599307,7.68136833 L3.92599307,7.68136833 Z M1.6896542,6.1774723 L1.66041393,6.16133392 L1.61601204,6.26119019 L1.64525231,6.27228533 L1.6896542,6.1774723 Z M1.60085043,5.72559744 L1.60085043,5.65600064 C1.54020395,5.69231202 1.50771476,5.75283097 1.50771476,5.83856616 C1.56944421,5.7800645 1.60085043,5.74476178 1.60085043,5.72559744 L1.60085043,5.72559744 Z M1.52504233,6.53957738 L1.52504233,6.44072976 C1.47414261,6.48914492 1.45140018,6.53453414 1.45140018,6.58194065 C1.48064044,6.55672442 1.50338287,6.53957738 1.52504233,6.53957738 L1.52504233,6.53957738 Z M2.03945442,6.69692667 C2.00913118,6.69692667 1.99288659,6.68078828 1.99288659,6.65355475 C1.93332308,6.68078828 1.91166363,6.70600451 1.93332308,6.7241602 C1.87375958,6.79173969 1.70914771,7.01767713 1.43623856,7.41407628 C1.47414261,7.41407628 1.48713828,7.42214547 1.48064044,7.44130981 C1.45140018,7.49678552 1.39183667,7.64707425 1.29870101,7.89217602 C1.32794127,7.86393384 1.37017721,7.84779545 1.41891099,7.84779545 C1.2792075,7.97992851 1.2033994,8.0596118 1.19256967,8.08785397 C1.19256967,8.14635563 1.21422913,8.19678809 1.25213318,8.24419461 C1.32577533,8.11206156 1.41891099,7.9264701 1.54020395,7.68136833 C1.54020395,7.62387532 1.60734826,7.48165578 1.73622203,7.256727 L1.75138365,7.1891475 C1.8131131,7.13266314 1.84235336,7.08021338 1.84235336,7.03381551 L1.82719175,6.95009763 C1.88675525,6.88251813 1.95606551,6.80283484 2.03945442,6.69692667 L2.03945442,6.69692667 Z M1.78062391,6.49620547 L1.73622203,6.41450488 C1.64525231,6.54764658 1.49580206,6.75341102 1.28137344,7.03381551 C0.954315651,7.62387532 0.784288918,7.97085066 0.784288918,8.07474153 C0.784288918,8.09087992 0.790786755,8.12214805 0.799450537,8.15745077 C0.810280265,8.19678809 0.814612157,8.21897838 0.814612157,8.21897838 C1.00629835,7.83468301 1.19256967,7.49678552 1.37234316,7.21738968 L1.37234316,7.15787937 C1.36476235,7.13266314 1.378841,7.1175334 1.41891099,7.1175334 L1.41891099,7.08828257 C1.40916424,7.08021338 1.40050045,7.07416148 1.39183667,7.07416148 C1.46114693,7.05701445 1.50338287,6.986409 1.52504233,6.86335379 L1.52504233,6.83712891 C1.52504233,6.80888673 1.54778476,6.77660996 1.59110367,6.74534183 C1.6376715,6.71306505 1.66691177,6.68482287 1.67557555,6.66868449 C1.71564554,6.58194065 1.75138365,6.52646494 1.78062391,6.49620547 L1.78062391,6.49620547 Z M0.695485146,8.89073877 L0.695485146,8.81811603 L0.637004614,8.86148795 C0.643502451,8.88065228 0.66624488,8.89073877 0.695485146,8.89073877 L0.695485146,8.89073877 Z M1.20773129,6.93496789 C1.14600184,7.03885876 0.998717536,7.29707297 0.757214597,7.70961051 C0.674908663,7.84779545 0.628340831,7.93958254 0.617511103,7.97488526 L0.617511103,8.08785397 C0.770210271,7.83468301 0.966228352,7.449379 1.20773129,6.93496789 L1.20773129,6.93496789 Z M0.695485146,8.76264032 C0.674908663,8.63252457 0.637004614,8.4489504 0.575275163,8.21595243 C0.575275163,8.22603892 0.570943272,8.24419461 0.557947598,8.27848868 C0.550366788,8.31177411 0.543868951,8.33497304 0.543868951,8.35615467 C0.543868951,8.41163038 0.575275163,8.48324448 0.637004614,8.56494507 C0.611013266,8.56494507 0.596934619,8.56292777 0.588270837,8.55183263 L0.543868951,8.55183263 L0.66624488,8.77978736 L0.695485146,8.76264032 Z M0.70848082,7.21738968 C0.719310548,7.24361456 0.704148929,7.29001242 0.66624488,7.35154003 C0.626174886,7.41407628 0.600183538,7.449379 0.600183538,7.47257794 C0.600183538,7.49678552 0.611013266,7.51998445 0.637004614,7.54015743 L0.543868951,7.54015743 C0.583938946,7.46551739 0.637004614,7.35557462 0.70848082,7.21738968 L0.70848082,7.21738968 Z M0.557947598,7.56839961 L0.49730112,7.66623859 L0.469143826,7.65312615 L0.513545712,7.56839961 L0.557947598,7.56839961 Z M8.67049701,4.71190495 C8.71923078,4.71190495 8.71923078,4.72199144 8.65316944,4.74014713 L8.64233971,4.82588232 C8.56003378,4.88841857 8.44848758,4.99432674 8.30878408,5.13452898 C8.33585841,5.16377981 8.35318597,5.19605659 8.35318597,5.23337661 L8.30878408,5.18899604 C8.2762949,5.22732471 8.26654814,5.26161879 8.2762949,5.29086962 C8.24488869,5.28179177 8.20915058,5.28582637 8.15608492,5.30297341 C8.15608492,5.33121559 8.17774437,5.34533668 8.21781437,5.34533668 C8.16691464,5.41089888 8.13659141,5.47141783 8.12684465,5.52991949 C8.12684465,5.50268596 8.11601492,5.47646108 8.09652141,5.45729674 L8.02071331,5.54202328 C8.02071331,5.56219626 8.03587493,5.56925681 8.0651152,5.56925681 C8.02721115,5.60859413 7.87018009,5.75787422 7.59727094,6.02113167 L7.59727094,6.0483652 C7.555035,6.14418688 7.5030523,6.21378368 7.43049313,6.26119019 C7.42182934,6.27127668 7.42182934,6.28741507 7.43049313,6.3186832 C7.53229257,6.26119019 7.57669446,6.22891342 7.56803067,6.22891342 C7.57669446,6.22891342 7.58319229,6.23799126 7.58319229,6.2470691 L7.61243256,6.2470691 C7.59185608,6.2470691 7.65250255,6.21378368 7.79437199,6.14620418 L8.62609512,5.45729674 C8.4517365,5.62674982 8.18965707,5.87286023 7.83877388,6.18856745 C7.83877388,6.19966259 7.84960361,6.21378368 7.87018009,6.22891342 C7.83877388,6.27127668 7.79870389,6.3186832 7.74780416,6.37315026 C7.73914038,6.37315026 7.7185639,6.35600322 7.68824066,6.33078699 C7.68065985,6.33885618 7.63950688,6.37315026 7.56803067,6.42963462 C7.56803067,6.42963462 7.57452851,6.4477903 7.58319229,6.45787679 C7.61243256,6.43568651 7.63950688,6.42963462 7.65683445,6.42963462 C7.60810067,6.49519682 7.27671099,6.84822405 6.66049945,7.48165578 L6.61609756,7.48165578 C6.61609756,7.49275092 6.60093594,7.52401905 6.56952973,7.57646881 C6.54028947,7.62488397 6.52512785,7.66321264 6.52512785,7.68136833 C6.52512785,7.71868835 6.5630319,7.77517271 6.6464208,7.84779545 C6.72439485,7.81148408 6.77096268,7.7156624 6.78179241,7.55226123 L6.78179241,7.73684404 C6.81319862,7.75701702 6.8576005,7.76105162 6.91824698,7.75197378 C6.91824698,7.78021596 6.92907671,7.81652733 6.957234,7.86393384 C6.97997643,7.91033171 6.99080616,7.94361713 6.99080616,7.96177282 C6.99080616,8.09087992 6.91824698,8.15341618 6.76663079,8.14635563 L6.8576005,8.14635563 L6.8576005,8.24419461 C6.83594105,8.24419461 6.81319862,8.23814271 6.78179241,8.22704757 C6.75146917,8.21897838 6.73089268,8.21595243 6.7222289,8.21595243 C6.71139917,8.24419461 6.70706728,8.30975681 6.70706728,8.41163038 C6.70706728,8.54376343 6.73739052,8.60831699 6.798037,8.60831699 C6.81536456,8.60831699 6.82944321,8.60529104 6.83594105,8.59318725 C6.83810699,8.58511805 6.85326861,8.57906616 6.8738451,8.57906616 C6.8738451,8.57906616 6.92041293,8.59318725 6.99080616,8.62042078 C7.06228237,8.65269755 7.11101614,8.66379269 7.13050965,8.66379269 L7.24855369,8.56494507 C7.29078963,8.56494507 7.32327882,8.57906616 7.33952341,8.60831699 C7.33085963,8.64866296 7.32436179,8.70010407 7.32436179,8.76264032 C7.3438553,8.76264032 7.36551476,8.77978736 7.38392529,8.80601224 L7.38392529,8.91696365 L7.29512152,9.53627429 C7.08394182,9.84794691 6.8976705,10.0022702 6.73739052,10.0022702 C6.71573106,10.0022702 6.69082269,9.9952097 6.66049945,9.98613185 C6.63125918,9.97806266 6.60743378,9.97402806 6.58469135,9.97402806 L6.58469135,9.86307665 C6.6464208,9.85299015 6.73089268,9.83281717 6.84243888,9.80255769 C6.89117266,9.7864193 6.96156589,9.72186575 7.04387183,9.61797488 C7.1326756,9.50702346 7.17274559,9.42935747 7.17274559,9.38295961 C7.17274559,9.33656174 7.09260561,9.26494764 6.93124265,9.17114326 C6.95290211,9.15399623 6.96264887,9.20241139 6.96264887,9.3254666 C6.96264887,9.39909799 6.90850023,9.51004941 6.798037,9.64823436 C6.798037,9.62200948 6.78720727,9.60082784 6.78179241,9.58166351 C6.76229889,9.60082784 6.75146917,9.61192298 6.75146917,9.61192298 C6.74280538,9.5937673 6.69082269,9.57662026 6.60093594,9.56855107 C6.54028947,9.56855107 6.5110492,9.63411327 6.5110492,9.77734146 C6.48072596,9.77734146 6.46014948,9.76927227 6.44931975,9.75010793 C6.4114157,9.79347985 6.35401814,9.81365283 6.28470788,9.80255769 L6.28470788,9.7904539 C6.29445464,9.80054039 6.29878653,9.7904539 6.29878653,9.76221172 C6.29878653,9.69564087 6.26738032,9.66538139 6.20565086,9.66538139 C6.18940627,9.66538139 6.1764106,9.66639004 6.1764106,9.67647654 C6.1764106,9.68555438 6.16558087,9.69059763 6.14933628,9.69059763 C6.13850655,9.69059763 6.1125152,9.66639004 6.07894304,9.61797488 C6.04537089,9.56249917 6.02371143,9.53627429 6.01179873,9.53627429 C5.99013927,9.53627429 5.98147549,9.55342133 5.98147549,9.58166351 C5.94790333,9.57258566 5.93057577,9.56855107 5.92299496,9.56855107 L5.98147549,9.51004941 C5.98147549,9.51004941 5.96956279,9.48584183 5.94790333,9.46869479 C5.88184199,9.41927098 5.77462768,9.36480392 5.63275824,9.29823307 L5.35984909,9.29823307 C5.34252153,9.29823307 5.32627693,9.30831956 5.31761315,9.3254666 C5.30894937,9.34765688 5.29053883,9.35270013 5.27104532,9.35270013 C5.24938586,9.35270013 5.2201456,9.34967418 5.1800756,9.34059634 L5.08910588,9.34059634 C5.0804421,9.31134551 5.04253805,9.26293035 4.98514049,9.1842557 L4.98514049,9.10053782 C4.96456401,9.05413995 4.92232807,8.99765559 4.86059862,8.93209339 C4.88983889,8.90385121 4.90283456,8.88065228 4.88983889,8.86148795 L3.50471665,9.73497819 C3.52421016,9.71480521 3.53395691,9.69967547 3.53395691,9.69967547 C3.52421016,9.67345059 3.50471665,9.66538139 3.47331043,9.66538139 C3.41158098,9.66538139 3.34660261,9.68555438 3.28054127,9.73497819 C3.34660261,9.66033815 3.45165098,9.58368081 3.59352042,9.51004941 C3.59352042,9.51004941 3.58918853,9.48987643 3.5783588,9.48281588 C3.49821881,9.51004941 3.38017477,9.55745593 3.2318075,9.62200948 C3.28270722,9.5937673 3.34660261,9.55745593 3.42890855,9.51004941 C3.43973828,9.48987643 3.44948503,9.45154775 3.46031476,9.3970807 C3.47980827,9.36984717 3.51338043,9.33656174 3.56428015,9.29823307 C3.5426207,9.29823307 3.50904854,9.28512063 3.46031476,9.25687845 C3.41807882,9.34059634 3.33577289,9.39203745 3.21881182,9.41019314 C3.19823534,9.42935747 3.18090777,9.46163425 3.17224399,9.51004941 C3.11159751,9.54636078 3.04337022,9.56855107 2.97622591,9.56855107 C2.97622591,9.64823436 2.9448197,9.69059763 2.88525619,9.69059763 C2.86359674,9.69059763 2.84951809,9.68555438 2.83868836,9.67647654 L2.82569269,9.66538139 C2.80295026,9.69967547 2.77479296,9.76221172 2.73255702,9.84794691 C2.74338675,9.8560161 2.77479296,9.86307665 2.82569269,9.86307665 C3.00546618,9.86307665 3.11159751,9.82273068 3.14300372,9.75010793 C3.12242724,9.76927227 3.08993806,9.80054039 3.04986806,9.84794691 C3.07152752,9.8560161 3.13433994,9.86307665 3.24480317,9.86307665 C3.21881182,9.88728423 3.16682913,9.9276302 3.09643589,9.97402806 C2.91449646,10.0486681 2.75421648,10.0869968 2.61234704,10.0869968 C2.54195381,10.0486681 2.20190034,9.89636207 1.58677178,9.63411327 C1.55644854,9.61797488 1.5022999,9.58872405 1.41891099,9.55342133 C1.19690156,9.44852181 1.08318942,9.3890115 1.07235969,9.36984717 C0.909913765,9.28512063 0.821109994,9.1842557 0.799450537,9.07431294 C0.790786755,9.05413995 0.776708108,9.03598427 0.757214597,9.01581128 C0.734472168,9.03598427 0.737721086,9.07431294 0.770210271,9.12878 C0.748550815,9.12878 0.72364244,9.1227281 0.685738391,9.10558106 C0.651083261,9.09448592 0.626174886,9.08439943 0.600183538,9.08439943 L0.575275163,9.11365026 C0.637004614,9.16307407 0.659747043,9.20745464 0.648917315,9.25687845 C0.697651092,9.28512063 0.759380543,9.33656174 0.828690803,9.41019314 L0.828690803,9.48281588 C0.828690803,9.50097157 0.814612157,9.51004941 0.784288918,9.51004941 C0.763712434,9.51004941 0.744218923,9.49592832 0.72364244,9.46869479 L0.66624488,9.42431423 C0.594768674,9.42431423 0.49730112,9.39203745 0.376008164,9.3254666 C0.295868175,9.24981791 0.207064404,8.97445666 0.103099013,8.49635692 L0.0738587465,8.41163038 C0.0738587465,8.3854055 0.0846884747,8.34102494 0.0998500942,8.28454058 C0.113928741,8.22704757 0.120426578,8.18367565 0.120426578,8.15139888 C0.120426578,8.1191221 0.131256306,8.06566369 0.149666844,7.98900635 L0.137754143,7.98900635 C0.126924415,7.98900635 0.120426578,7.97992851 0.120426578,7.96177282 C0.149666844,7.89621062 0.257964126,7.73684404 0.43990356,7.48165578 C0.426907886,7.52805364 0.422575995,7.59664179 0.422575995,7.68136833 C0.431239778,7.69044617 0.448567343,7.70961051 0.469143826,7.73684404 C0.477807609,7.80139759 0.473475718,7.87906358 0.452899234,7.96177282 C0.473475718,7.90629711 0.550366788,7.75701702 0.679240554,7.51292391 L0.905581874,7.08828257 L0.890420254,7.06104904 C0.861179988,7.08828257 0.846018368,7.10643826 0.846018368,7.1175334 L0.846018368,7.0479366 C0.814612157,7.06710094 0.781039999,7.10643826 0.737721086,7.17401776 C0.821109994,7.04491066 0.879590526,6.93496789 0.91966052,6.8532673 C0.91966052,6.89663922 0.926158357,6.92790734 0.93482214,6.93496789 C1.04745131,6.82199917 1.10593185,6.71104775 1.11676157,6.59807904 C1.05503212,6.63539906 1.01063024,6.68078828 0.983555917,6.73727264 C1.08318942,6.55168117 1.23263967,6.27228533 1.43623856,5.91018025 C1.44490234,5.89706781 1.44490234,5.88899862 1.43623856,5.87891213 L1.29870101,5.96565596 C1.30736479,5.97473381 1.31819452,5.9787684 1.32794127,5.9787684 C1.34960073,5.9787684 1.36476235,5.97473381 1.37234316,5.96565596 C1.24346939,6.05946034 1.08318942,6.30456211 0.890420254,6.71104775 C0.828690803,6.84217216 0.697651092,7.01767713 0.49730112,7.24361456 C0.579607054,7.02877227 0.784288918,6.63035582 1.11676157,6.0483652 C1.1676613,5.96565596 1.25213318,5.80931533 1.37234316,5.5853952 C1.4145791,5.50873785 1.54020395,5.33121559 1.75138365,5.04980245 C1.91166363,4.83395151 1.99288659,4.7149309 1.99288659,4.69879251 C1.99288659,4.651386 1.95281659,4.59389299 1.87375958,4.53034809 C1.7134796,4.13495758 1.58677178,3.78899089 1.49580206,3.48841342 C1.50338287,3.42285121 1.50338287,3.31694304 1.49580206,3.1787581 C1.47414261,3.11420455 1.45140018,3.02241746 1.41891099,2.90944875 C1.37017721,2.509015 1.34310289,2.25180944 1.34310289,2.13884073 C1.34310289,1.5669366 1.48497233,1.09186281 1.76654527,0.718662587 C1.77845797,0.718662587 1.79795148,0.726731781 1.82719175,0.743878819 C1.79795148,0.780190191 1.75138365,0.84877834 1.6896542,0.943591369 L1.72214338,0.98292869 C1.76221338,0.918375138 1.83585553,0.811458318 1.95065065,0.660160931 L1.87375958,0.660160931 C1.89541903,0.596616029 1.94415281,0.51491544 2.02645874,0.42111106 C2.35676546,0.226441756 2.56794516,0.125576831 2.65891487,0.125576831 L2.70331676,0.168948749 C2.7217273,0.148775764 2.76071432,0.125576831 2.80944809,0.0993519507 C2.92749213,0.080187615 3.11159751,0.0448848914 3.35093451,0.000504324624 C3.48197422,0.0448848914 3.63575636,0.135663324 3.80470012,0.266787725 C3.96606307,0.322263434 4.07977521,0.350505613 4.15450034,0.350505613 C4.17291088,0.350505613 4.20323412,0.342436419 4.24330411,0.330332628 C4.28554005,0.316211538 4.31261437,0.308142344 4.33210788,0.308142344 C4.38517355,0.308142344 4.46098165,0.356557508 4.56061515,0.44733594 C4.71223134,0.495751104 4.92232807,0.569382499 5.19740317,0.673273371 C5.24613694,0.691429058 5.27754316,0.723705834 5.28404099,0.766069102 C5.29595369,0.80843237 5.30894937,0.834657251 5.31761315,0.842726445 C5.2558837,0.823562109 5.19740317,0.823562109 5.13567372,0.842726445 C5.16491398,0.860882131 5.2201456,0.896184855 5.30245153,0.943591369 C5.33060882,0.943591369 5.34685342,0.918375138 5.34685342,0.873994571 C5.37717666,0.909297295 5.42157854,0.98292869 5.48222502,1.09589741 L5.34685342,1.08278497 C5.33494072,1.18768449 5.39775314,1.31376564 5.53529069,1.47010628 C5.67066229,1.62342096 5.73888958,1.71621669 5.73888958,1.74143292 C5.73888958,1.8352373 5.69448769,2.00368173 5.60351798,2.2366797 C5.59485419,2.31938894 5.56453095,2.43134901 5.51254826,2.5745772 C5.50171853,2.60382803 5.51254826,2.61290587 5.54178852,2.61290587 C5.51254826,2.65426049 5.48222502,2.71477944 5.45298475,2.79849733 C5.44215502,2.8448952 5.43565719,2.90339685 5.43565719,2.98207149 C5.45731664,2.97299365 5.47247826,2.96895905 5.48222502,2.96895905 L5.42157854,3.03653855 C5.45298475,3.08394507 5.33494072,3.28264897 5.07177832,3.6437454 C5.05336778,3.6437454 5.02521049,3.66190109 4.98514049,3.69821246 C4.98514049,3.72746329 4.96456401,3.75469682 4.92232807,3.782939 L4.93857266,3.79706008 C4.92016212,3.85354444 4.88767294,3.87270878 4.84760295,3.85354444 L4.80103511,3.9100288 C4.80103511,3.92818449 4.80753295,3.93827098 4.81836268,3.93827098 C4.77829268,3.96953911 4.73605674,3.99878993 4.6981527,4.03510131 C4.61584676,4.09259431 4.58552352,4.14504407 4.60501703,4.19245059 C4.61584676,4.1823641 4.62992541,4.16824301 4.64292108,4.15109597 C4.6580827,4.12890569 4.67216135,4.11781054 4.68082513,4.1087327 C4.68082513,4.19245059 4.65591676,4.23481386 4.60501703,4.23481386 C4.58552352,4.23481386 4.58119163,4.22371872 4.59202136,4.20657168 C4.60285109,4.19749384 4.60285109,4.19245059 4.59202136,4.19245059 C4.58119163,4.21161492 4.50538353,4.27818577 4.36351409,4.38913719 C4.35268437,4.39922368 4.35268437,4.41435342 4.36351409,4.44562155 C4.38517355,4.438561 4.41224787,4.41435342 4.43932219,4.38913719 C4.38950544,4.438561 4.36351409,4.47890697 4.36351409,4.51521835 C4.36351409,4.59994488 4.39708625,4.68668872 4.46964543,4.76838931 L4.43932219,4.75426822 C4.41874571,4.76334606 4.39492031,4.7825104 4.36351409,4.81075258 C4.39492031,4.86824558 4.44365408,4.94692022 4.51404732,5.04980245 C4.66782946,5.21118633 4.74255458,5.3130599 4.74255458,5.35945777 C4.74255458,5.50268596 4.83785619,5.62674982 5.02954238,5.73870988 C5.0089659,5.7780472 5.08910588,5.91623215 5.27104532,6.14620418 L5.33060882,6.10585821 C5.30894937,6.13410039 5.30894937,6.15326472 5.31761315,6.16133392 L7.08394182,4.59994488 C7.08394182,4.61709192 7.10018642,4.62717841 7.13050965,4.62717841 C7.11101614,4.62717841 7.17924343,4.54648647 7.33952341,4.38913719 C7.37309557,4.36896421 7.41208259,4.35080852 7.45973339,4.33164418 C7.47056312,4.30441066 7.48789069,4.27112523 7.50846717,4.23481386 C7.62976013,4.12890569 7.89400549,3.94432287 8.30878408,3.67097893 L8.30878408,3.76982656 L8.24488869,3.81218982 C8.24488869,3.782939 8.24272274,3.76680061 8.23189301,3.75469682 C7.89183955,3.98265155 7.51279906,4.31853174 7.10018642,4.76838931 C7.02871021,4.8521072 6.88250888,5.01349107 6.66049945,5.24648905 C6.66916323,5.25758419 6.69407161,5.24648905 6.73739052,5.21824687 C6.6464208,5.32112909 6.5630319,5.39274319 6.49372163,5.42905456 C6.53595757,5.40383833 6.58252541,5.35138857 6.63125918,5.27271393 C6.64208891,5.27271393 6.63559107,5.26363609 6.61609756,5.24648905 L6.20565086,5.64087091 L6.26738032,5.69634661 L6.12984277,5.82343642 C6.12984277,5.83352291 6.13850655,5.84159211 6.14933628,5.85268725 C6.40058597,5.61767197 6.73089268,5.33121559 7.1445883,4.99432674 C7.35468503,4.82588232 7.82036334,4.49907996 8.5351254,4.02198887 C8.52429568,4.03409266 8.50480217,4.05930889 8.48205974,4.1087327 C8.45606839,4.15513057 8.43332596,4.18740734 8.41383245,4.20657168 C7.89183955,4.69475791 7.29078963,5.24245445 6.61609756,5.85268725 C6.60743378,5.85268725 6.60743378,5.86176509 6.61609756,5.87891213 C6.63559107,5.87286023 6.75146917,5.79519424 6.96264887,5.65600064 C6.92041293,5.71147635 6.85326861,5.79015099 6.75146917,5.89404187 C6.74280538,5.93035324 6.74280538,5.95052622 6.75146917,5.95052622 C6.73089268,5.95052622 6.70706728,5.96565596 6.67782701,5.99188084 C6.68432485,6.00095869 6.70056944,6.00902788 6.7222289,6.00902788 C6.86409834,5.91623215 7.21064964,5.64087091 7.76513173,5.18899604 C7.70340228,5.27271393 7.63192607,5.35340587 7.55286905,5.42905456 L7.47706096,5.50268596 L7.49222258,5.52991949 C7.71423201,5.35945777 7.94057332,5.20109983 8.17341248,5.04980245 L7.97414548,5.23337661 L8.04995358,5.24648905 L8.0651152,5.18899604 C8.26654814,5.02256892 8.46906406,4.86118504 8.67049701,4.71190495 L8.67049701,4.71190495 Z" id="Fill-25" fill="#000000" mask="url(#mask-6)"></path>
                </g>
            </g>
        </g>
    </g>
</svg>