<?xml version="1.0" encoding="UTF-8"?>
<svg width="208px" height="43px" viewBox="0 0 208 43" version="1.1" xmlns="http://www.w3.org/2000/svg" xmlns:xlink="http://www.w3.org/1999/xlink">
    <!-- Generator: Sketch 52.3 (67297) - http://www.bohemiancoding.com/sketch -->
    <title>Group 28 Copy</title>
    <desc>Created with Sketch.</desc>
    <defs>
        <polygon id="path-1" points="0 0.2252 1.18660241 0.2252 1.18660241 28.2262 0 28.2262"></polygon>
        <polygon id="path-3" points="0.0909686747 0.2657 27.9536964 0.2657 27.9536964 28.2262 0.0909686747 28.2262"></polygon>
        <polygon id="path-5" points="0 42.6681 207.886227 42.6681 207.886227 0.0001 0 0.0001"></polygon>
    </defs>
    <g id="MOBILE_OK" stroke="none" stroke-width="1" fill="none" fill-rule="evenodd">
        <g id="Icecream-Pictures" transform="translate(-950.000000, -40.000000)">
            <g id="Group-28-Copy" transform="translate(950.000000, 40.000000)">
                <path d="M116.428276,9.98755 C116.428276,4.69755 112.130444,0.39355 106.84975,0.39355 L97.2045648,0.39355 C96.8767769,0.39355 96.6101359,0.65955 96.6101359,0.98655 C96.6101359,1.31305 96.8767769,1.57705 97.2045648,1.57705 L106.84975,1.57705 C111.477876,1.57705 115.241924,5.35005 115.241924,9.98755 C115.241924,14.62255 111.477876,18.39405 106.84975,18.39405 L105.400767,18.39405 L115.418348,28.22405 C115.535129,28.33705 115.683987,28.39405 115.834849,28.39405 C115.987717,28.39405 116.142088,28.33455 116.256864,28.21705 C116.487919,27.98405 116.483408,27.61005 116.250348,27.37855 L108.202502,19.48305 C112.846165,18.82255 116.428276,14.81505 116.428276,9.98755" id="Fill-1" fill="#FFFFFF"></path>
                <g id="Group-5" transform="translate(0.000000, 0.168100)">
                    <mask id="mask-2" fill="white">
                        <use xlink:href="#path-1"></use>
                    </mask>
                    <use id="Clip-4" fill="#FFFFFF" xlink:href="#path-1"></use>
                    <path d="M0.593175904,0.2252 C0.265387952,0.2252 -0.00025060241,0.4912 -0.00025060241,0.8187 L-0.00025060241,27.6342 C-0.00025060241,27.9602 0.265387952,28.2262 0.593175904,28.2262 C0.920963855,28.2262 1.18660241,27.9602 1.18660241,27.6342 L1.18660241,0.8187 C1.18660241,0.4912 0.920963855,0.2252 0.593175904,0.2252" id="Fill-3" fill="#FFFFFF" mask="url(#mask-2)"></path>
                </g>
                <g id="Group-8" transform="translate(179.932530, 0.168100)">
                    <mask id="mask-4" fill="white">
                        <use xlink:href="#path-3"></use>
                    </mask>
                    <g id="Clip-7"></g>
                    <path d="M14.0224578,15.1207 L0.0909686747,0.2657 L0.0909686747,27.6342 C0.0909686747,27.9602 0.357609639,28.2262 0.68539759,28.2262 C1.01318554,28.2262 1.27832289,27.9602 1.27832289,27.6342 L1.27832289,3.2627 L14.0224578,16.8532 L26.7675952,3.2627 L26.7675952,27.6342 C26.7675952,27.9602 27.0332337,28.2262 27.3590169,28.2262 C27.689812,28.2262 27.953947,27.9602 27.953947,27.6342 L27.953947,0.2657 L14.0224578,15.1207 Z" id="Fill-6" fill="#FFFFFF" mask="url(#mask-4)"></path>
                </g>
                <path d="M170.409137,18.40405 L155.062246,18.40405 L162.712636,1.22655 C162.845957,0.92855 162.711634,0.57955 162.411412,0.44605 C162.108684,0.31005 161.761349,0.44605 161.627528,0.74555 L149.682313,27.56155 C149.549494,27.85955 149.68532,28.21005 149.985542,28.34305 C150.063229,28.37755 150.14693,28.39405 150.225619,28.39405 C150.453667,28.39405 150.670188,28.26305 150.768925,28.04205 L154.534477,19.58555 L170.409137,19.58555 C170.736925,19.58555 171.002564,19.32105 171.002564,18.99555 C171.002564,18.66855 170.736925,18.40405 170.409137,18.40405" id="Fill-9" fill="#FFFFFF"></path>
                <path d="M59.8396453,27.2097 L44.7042622,27.2097 L44.7042622,13.1717 L58.4157224,13.1717 C58.7440116,13.1717 59.0091489,12.9072 59.0091489,12.5802 C59.0091489,12.2532 58.7440116,11.9887 58.4157224,11.9887 L44.7042622,11.9887 L44.7042622,1.5767 L59.3650043,1.5767 C59.6927923,1.5767 59.9574284,1.3132 59.9574284,0.9867 C59.9574284,0.6592 59.6927923,0.3932 59.3650043,0.3932 L44.1123393,0.3932 C43.7845513,0.3932 43.5184116,0.6592 43.5184116,0.9867 L43.5184116,27.8027 C43.5184116,28.1282 43.7845513,28.3942 44.1123393,28.3942 L59.8396453,28.3942 C60.1674333,28.3942 60.4330718,28.1282 60.4330718,27.8027 C60.4330718,27.4742 60.1674333,27.2097 59.8396453,27.2097" id="Fill-11" fill="#FFFFFF"></path>
                <path d="M142.08079,27.2097 L126.946911,27.2097 L126.946911,13.1717 L140.182227,13.1717 C140.511518,13.1717 140.775653,12.9072 140.775653,12.5802 C140.775653,12.2532 140.511518,11.9887 140.182227,11.9887 L126.946911,11.9887 L126.946911,0.9867 C126.946911,0.6592 126.681272,0.3932 126.353484,0.3932 C126.026198,0.3932 125.760559,0.6592 125.760559,0.9867 L125.760559,27.8027 C125.760559,28.1282 126.026198,28.3942 126.353484,28.3942 L142.08079,28.3942 C142.407075,28.3942 142.674217,28.1282 142.674217,27.8027 C142.674217,27.4742 142.407075,27.2097 142.08079,27.2097" id="Fill-13" fill="#FFFFFF"></path>
                <path d="M33.0505986,23.72875 C30.5480829,26.22675 27.2210853,27.60425 23.6805745,27.60425 C16.3790227,27.60425 10.4382419,21.67775 10.4382419,14.39375 C10.4382419,7.10975 16.3790227,1.18325 23.6805745,1.18325 C27.2165745,1.18325 30.543572,2.55775 33.0450853,5.05175 C33.2756395,5.28325 33.6520443,5.28325 33.8841022,5.05175 C34.1146564,4.82225 34.1146564,4.44675 33.8841022,4.21525 C31.1590516,1.49625 27.5353407,0.00025 23.6805745,0.00025 C15.7249504,0.00025 9.25239133,6.45675 9.25239133,14.39375 C9.25239133,22.33075 15.7249504,28.78775 23.6805745,28.78775 C27.5378467,28.78775 31.1645648,27.28875 33.891119,24.56475 C34.1216733,24.33425 34.1216733,23.95875 33.8896154,23.72875 C33.6590612,23.49575 33.2826564,23.49575 33.0505986,23.72875" id="Fill-15" fill="#FFFFFF"></path>
                <path d="M89.8404627,23.72875 C87.3389494,26.22675 84.0104482,27.60425 80.4704386,27.60425 C73.1683855,27.60425 67.2266024,21.67775 67.2266024,14.39375 C67.2266024,7.10975 73.1683855,1.18325 80.4704386,1.18325 C84.0064386,1.18325 87.3329349,2.55775 89.8334458,5.05175 C90.0650024,5.28325 90.4419084,5.28325 90.6724627,5.05175 C90.9040193,4.82225 90.9040193,4.44675 90.6724627,4.21525 C87.9489157,1.49625 84.3232,0.00025 80.4704386,0.00025 C72.5133108,0.00025 66.0402506,6.45675 66.0402506,14.39375 C66.0402506,22.33075 72.5133108,28.78775 80.4704386,28.78775 C84.3277108,28.78775 87.9539277,27.28875 90.6794795,24.56475 C90.9110361,24.33425 90.9110361,23.95875 90.6794795,23.72875 C90.4474217,23.49575 90.0710169,23.49575 89.8404627,23.72875" id="Fill-17" fill="#FFFFFF"></path>
                <polygon id="Fill-19" fill="#FFFFFF" points="118.603906 36.62085 118.603906 37.82685 120.416763 37.82685 120.416763 42.56635 121.728918 42.56635 121.728918 37.82685 123.542778 37.82685 123.542778 36.62085"></polygon>
                <path d="M142.360763,42.6594 C141.56084,42.6594 140.930325,42.4389 140.47072,41.9969 C140.011115,41.5554 139.781563,40.8959 139.781563,40.0179 L139.781563,36.6209 L141.092715,36.6209 L141.092715,39.9839 C141.092715,40.4709 141.205486,40.8374 141.432532,41.0839 C141.66058,41.3299 141.974334,41.4534 142.378306,41.4534 C142.780773,41.4534 143.09553,41.3344 143.323578,41.0969 C143.549621,40.8584 143.663896,40.5024 143.663896,40.0259 L143.663896,36.6209 L144.975549,36.6209 L144.975549,39.9759 C144.975549,40.4289 144.914402,40.8219 144.792609,41.1559 C144.669814,41.4904 144.495896,41.7694 144.26885,41.9924 C144.041804,42.2164 143.766643,42.3834 143.442865,42.4939 C143.119086,42.6044 142.758219,42.6594 142.360763,42.6594" id="Fill-21" fill="#FFFFFF"></path>
                <mask id="mask-6" fill="white">
                    <use xlink:href="#path-5"></use>
                </mask>
                <g id="Clip-24"></g>
                <polygon id="Fill-23" fill="#FFFFFF" mask="url(#mask-6)" points="183.685051 42.5661 184.996202 42.5661 184.996202 36.6206 183.685051 36.6206"></polygon>
                <path d="M204.710342,42.6682 C204.250737,42.6682 203.826718,42.5872 203.44079,42.4262 C203.055364,42.2642 202.721561,42.0467 202.440887,41.7717 C202.160212,41.4972 201.941186,41.1747 201.785311,40.8037 C201.628935,40.4327 201.550246,40.0347 201.550246,39.6107 L201.550246,39.5932 C201.550246,39.1682 201.629937,38.7707 201.789822,38.3997 C201.948202,38.0292 202.168733,37.7032 202.448906,37.4232 C202.730583,37.1427 203.065388,36.9222 203.45332,36.7612 C203.843258,36.5992 204.267277,36.5187 204.726882,36.5187 C205.186487,36.5187 205.610005,36.5992 205.99493,36.7612 C206.382361,36.9222 206.715161,37.1397 206.996839,37.4147 C207.277012,37.6897 207.495537,38.0117 207.652414,38.3832 C207.807788,38.7542 207.886477,39.1517 207.886477,39.5762 L207.886477,39.5932 C207.886477,40.0177 207.806786,40.4157 207.647904,40.7862 C207.489022,41.1577 207.268492,41.4832 206.988318,41.7627 C206.706641,42.0432 206.371335,42.2642 205.9824,42.4262 C205.593966,42.5872 205.169947,42.6682 204.710342,42.6682 M204.726882,41.4617 C204.988511,41.4617 205.229089,41.4137 205.451123,41.3172 C205.672154,41.2207 205.860607,41.0882 206.017484,40.9182 C206.172858,40.7487 206.295152,40.5517 206.383364,40.3277 C206.471576,40.1042 206.515682,39.8652 206.515682,39.6107 L206.515682,39.5932 C206.515682,39.3387 206.471576,39.0977 206.383364,38.8712 C206.295152,38.6447 206.170352,38.4467 206.008463,38.2767 C205.846573,38.1067 205.655113,37.9722 205.434082,37.8732 C205.212549,37.7747 204.970969,37.7242 204.710342,37.7242 C204.444202,37.7242 204.200116,37.7727 203.982092,37.8687 C203.763065,37.9657 203.576116,38.0982 203.420241,38.2682 C203.262863,38.4382 203.141571,38.6352 203.053359,38.8587 C202.966149,39.0822 202.921542,39.3217 202.921542,39.5762 L202.921542,39.5932 C202.921542,39.8477 202.966149,40.0892 203.053359,40.3152 C203.141571,40.5412 203.267373,40.7402 203.42826,40.9092 C203.590651,41.0797 203.780607,41.2142 203.999133,41.3132 C204.217157,41.4117 204.460742,41.4617 204.726882,41.4617" id="Fill-25" fill="#FFFFFF" mask="url(#mask-6)"></path>
                <path d="M100.380449,42.6511 C99.92736,42.6511 99.4812877,42.5731 99.0442371,42.4171 C98.6066853,42.2621 98.2097311,42.0221 97.8518708,41.7001 L98.6262323,40.7736 C98.8998901,40.9946 99.1795624,41.1701 99.4652492,41.3006 C99.7524395,41.4311 100.065693,41.4956 100.407013,41.4956 C100.679167,41.4956 100.890676,41.4466 101.041037,41.3476 C101.191399,41.2481 101.26708,41.1106 101.26708,40.9351 L101.26708,40.9181 C101.26708,40.8336 101.251042,40.7586 101.219466,40.6931 C101.18789,40.6281 101.128247,40.5671 101.040035,40.5106 C100.953326,40.4541 100.829529,40.3971 100.673654,40.3406 C100.516276,40.2846 100.312787,40.2246 100.062685,40.1621 C99.76096,40.0891 99.4883046,40.0066 99.2427142,39.9161 C98.9986275,39.8261 98.7906275,39.7136 98.6197166,39.5801 C98.4488058,39.4476 98.3164877,39.2821 98.2232636,39.0831 C98.1290371,38.8861 98.0814227,38.6391 98.0814227,38.3451 L98.0814227,38.3276 C98.0814227,38.0566 98.133548,37.8111 98.2347913,37.5931 C98.3360347,37.3751 98.4773745,37.1866 98.6613166,37.0286 C98.8442564,36.8696 99.0637841,36.7476 99.3178949,36.6631 C99.5730082,36.5781 99.8531817,36.5361 100.159919,36.5361 C100.597471,36.5361 100.998435,36.6006 101.364314,36.7306 C101.730695,36.8611 102.066502,37.0486 102.373741,37.2916 L101.692603,38.2766 C101.425461,38.0956 101.164333,37.9531 100.90922,37.8481 C100.654107,37.7431 100.398493,37.6906 100.142878,37.6906 C99.8877648,37.6906 99.6958034,37.7401 99.5679961,37.8396 C99.4401889,37.9381 99.3760347,38.0616 99.3760347,38.2086 L99.3760347,38.2256 C99.3760347,38.3221 99.3940781,38.4056 99.4316684,38.4761 C99.4687576,38.5471 99.5349166,38.6111 99.6316492,38.6671 C99.7288829,38.7241 99.8617022,38.7781 100.029105,38.8286 C100.197509,38.8796 100.41002,38.9391 100.665133,39.0071 C100.966859,39.0866 101.236006,39.1756 101.472073,39.2746 C101.708141,39.3736 101.908623,39.4931 102.070011,39.6316 C102.2319,39.7701 102.354695,39.9326 102.437394,40.1201 C102.519591,40.3066 102.561693,40.5306 102.561693,40.7906 L102.561693,40.8076 C102.561693,41.1021 102.507061,41.3646 102.399803,41.5941 C102.292546,41.8231 102.144189,42.0156 101.951726,42.1711 C101.759765,42.3271 101.531215,42.4461 101.265577,42.5276 C100.999437,42.6101 100.704729,42.6511 100.380449,42.6511" id="Fill-26" fill="#FFFFFF" mask="url(#mask-6)"></path>
                <path d="M161.639507,36.62085 L163.964596,36.62085 C164.430215,36.62085 164.85674,36.69535 165.245174,36.84585 C165.63461,36.99585 165.969415,37.20385 166.251092,37.46985 C166.531767,37.73585 166.748287,38.04885 166.901656,38.40835 C167.055526,38.76785 167.131709,39.15685 167.131709,39.57635 L167.131709,39.59285 C167.131709,40.01235 167.055526,40.40285 166.901656,40.76535 C166.748287,41.12785 166.531767,41.44235 166.251092,41.70835 C165.969415,41.97485 165.63461,42.18385 165.245174,42.33685 C164.85674,42.48935 164.430215,42.56635 163.964596,42.56635 L161.639507,42.56635 L161.639507,36.62085 Z M163.964596,41.38535 C164.230735,41.38535 164.474822,41.34235 164.696856,41.25785 C164.917887,41.17285 165.106841,41.05085 165.262716,40.89285 C165.419092,40.73435 165.541386,40.54785 165.629097,40.33235 C165.716808,40.11685 165.760914,39.87635 165.760914,39.61035 L165.760914,39.59285 C165.760914,39.33285 165.716808,39.09235 165.629097,38.87135 C165.541386,38.65035 165.419092,38.46135 165.262716,38.30185 C165.106841,38.14385 164.917887,38.02085 164.696856,37.93285 C164.474822,37.84485 164.230735,37.80085 163.964596,37.80085 L162.950658,37.80085 L162.950658,41.38535 L163.964596,41.38535 Z" id="Fill-27" fill="#FFFFFF" mask="url(#mask-6)"></path>
            </g>
        </g>
    </g>
</svg>